<svg width="20" height="18" viewBox="0 0 20 18" fill="none" xmlns="http://www.w3.org/2000/svg">
<g filter="url(#filter0_d_3_158)">
<path d="M16.6667 0.5H3.33333C2.8725 0.5 2.5 0.873333 2.5 1.33333V14.6667C2.5 15.1267 2.8725 15.5 3.33333 15.5H10.5125V9.7H8.56417V7.42917H10.5125V5.7625C10.5125 3.825 11.6958 2.76917 13.4292 2.76917C14.0117 2.7675 14.595 2.7975 15.175 2.85833V4.875H13.9792C13.0392 4.875 12.8558 5.32333 12.8558 5.97917V7.425H15.1033L14.8117 9.69583H12.855V15.5H16.6667C17.1275 15.5 17.5 15.1267 17.5 14.6667V1.33333C17.5 0.873333 17.1275 0.5 16.6667 0.5Z" fill="#33354D"/>
</g>
<defs>
<filter id="filter0_d_3_158" x="-1.5" y="0.5" width="23" height="23" filterUnits="userSpaceOnUse" color-interpolation-filters="sRGB">
<feFlood flood-opacity="0" result="BackgroundImageFix"/>
<feColorMatrix in="SourceAlpha" type="matrix" values="0 0 0 0 0 0 0 0 0 0 0 0 0 0 0 0 0 0 127 0" result="hardAlpha"/>
<feOffset dy="4"/>
<feGaussianBlur stdDeviation="2"/>
<feComposite in2="hardAlpha" operator="out"/>
<feColorMatrix type="matrix" values="0 0 0 0 0 0 0 0 0 0 0 0 0 0 0 0 0 0 0.25 0"/>
<feBlend mode="normal" in2="BackgroundImageFix" result="effect1_dropShadow_3_158"/>
<feBlend mode="normal" in="SourceGraphic" in2="effect1_dropShadow_3_158" result="shape"/>
</filter>
</defs>
</svg>
