<svg width="155" height="118" viewBox="0 0 155 118" fill="none" xmlns="http://www.w3.org/2000/svg">
<path d="M21.0547 1C28.7443 1 35 6.5195 35 13.3047C35 16.171 33.8657 18.9483 31.8013 21.1497C31.3927 22.8344 31.8886 24.6192 33.1191 25.8497C33.6336 26.3642 33.2697 27.25 32.5391 27.25C30.2015 27.25 27.948 26.3344 26.2738 24.7194C24.6171 25.3106 22.8644 25.6094 21.0547 25.6094C13.3651 25.6094 7 20.0899 7 13.3047C7 6.5195 13.3651 1 21.0547 1ZM27.5078 15.7656C28.8648 15.7656 29.9688 14.6617 29.9688 13.3047C29.9688 11.9477 28.8648 10.8438 27.5078 10.8438C26.1508 10.8438 25.0469 11.9477 25.0469 13.3047C25.0469 14.6617 26.1508 15.7656 27.5078 15.7656ZM20.9453 15.7656C22.3023 15.7656 23.4062 14.6617 23.4062 13.3047C23.4062 11.9477 22.3023 10.8438 20.9453 10.8438C19.5883 10.8438 18.4844 11.9477 18.4844 13.3047C18.4844 14.6617 19.5883 15.7656 20.9453 15.7656ZM14.3828 15.7656C15.7398 15.7656 16.8438 14.6617 16.8438 13.3047C16.8438 11.9477 15.7398 10.8438 14.3828 10.8438C13.0258 10.8438 11.9219 11.9477 11.9219 13.3047C11.9219 14.6617 13.0258 15.7656 14.3828 15.7656Z" fill="#22C55E"/>
<path d="M7.98 60V49.92H11.039C11.1463 49.92 11.3283 49.9223 11.585 49.927C11.8463 49.9317 12.096 49.9503 12.334 49.983C13.0993 50.0903 13.7387 50.375 14.252 50.837C14.7653 51.299 15.1503 51.887 15.407 52.601C15.6637 53.315 15.792 54.1013 15.792 54.96C15.792 55.8187 15.6637 56.605 15.407 57.319C15.1503 58.033 14.7653 58.621 14.252 59.083C13.7387 59.545 13.0993 59.8297 12.334 59.937C12.1007 59.965 11.851 59.9837 11.585 59.993C11.319 59.9977 11.137 60 11.039 60H7.98ZM9.044 59.013H11.039C11.2303 59.013 11.4357 59.0083 11.655 58.999C11.879 58.985 12.0703 58.9617 12.229 58.929C12.817 58.8263 13.2907 58.5883 13.65 58.215C14.014 57.8417 14.28 57.375 14.448 56.815C14.616 56.2503 14.7 55.632 14.7 54.96C14.7 54.2833 14.616 53.6627 14.448 53.098C14.28 52.5333 14.014 52.0667 13.65 51.698C13.286 51.3293 12.8123 51.0937 12.229 50.991C12.0703 50.9583 11.8767 50.9373 11.648 50.928C11.424 50.914 11.221 50.907 11.039 50.907H9.044V59.013ZM20.5433 60.21C19.7919 60.21 19.1503 60.0397 18.6183 59.699C18.0863 59.3583 17.6779 58.887 17.3933 58.285C17.1086 57.683 16.9663 56.9923 16.9663 56.213C16.9663 55.4197 17.1109 54.7243 17.4003 54.127C17.6896 53.5297 18.1003 53.0653 18.6323 52.734C19.1689 52.398 19.8059 52.23 20.5433 52.23C21.2993 52.23 21.9433 52.4003 22.4753 52.741C23.0119 53.077 23.4203 53.546 23.7003 54.148C23.9849 54.7453 24.1273 55.4337 24.1273 56.213C24.1273 57.0063 23.9849 57.704 23.7003 58.306C23.4156 58.9033 23.0049 59.37 22.4683 59.706C21.9316 60.042 21.2899 60.21 20.5433 60.21ZM20.5433 59.223C21.3833 59.223 22.0086 58.9453 22.4193 58.39C22.8299 57.83 23.0353 57.1043 23.0353 56.213C23.0353 55.2983 22.8276 54.5703 22.4123 54.029C22.0016 53.4877 21.3786 53.217 20.5433 53.217C19.9786 53.217 19.5119 53.3453 19.1433 53.602C18.7793 53.854 18.5063 54.2063 18.3243 54.659C18.1469 55.107 18.0583 55.625 18.0583 56.213C18.0583 57.123 18.2683 57.8533 18.6883 58.404C19.1083 58.95 19.7266 59.223 20.5433 59.223ZM31.1314 60V56.143C31.1314 55.723 31.0917 55.338 31.0124 54.988C30.9331 54.6333 30.8047 54.3253 30.6274 54.064C30.4547 53.798 30.2284 53.5927 29.9484 53.448C29.6731 53.3033 29.3371 53.231 28.9404 53.231C28.5764 53.231 28.2544 53.294 27.9744 53.42C27.6991 53.546 27.4657 53.728 27.2744 53.966C27.0877 54.1993 26.9454 54.484 26.8474 54.82C26.7494 55.156 26.7004 55.5387 26.7004 55.968L25.9724 55.807C25.9724 55.0323 26.1077 54.3813 26.3784 53.854C26.6491 53.3267 27.0224 52.9277 27.4984 52.657C27.9744 52.3863 28.5204 52.251 29.1364 52.251C29.5891 52.251 29.9834 52.321 30.3194 52.461C30.6601 52.601 30.9471 52.79 31.1804 53.028C31.4184 53.266 31.6097 53.539 31.7544 53.847C31.8991 54.1503 32.0041 54.4747 32.0694 54.82C32.1347 55.1607 32.1674 55.5013 32.1674 55.842V60H31.1314ZM25.6644 60V52.44H26.5954V54.302H26.7004V60H25.6644ZM33.2834 52.44V49.92H34.3124V52.44H33.2834ZM40.5335 60C40.1088 60.0887 39.6888 60.1237 39.2735 60.105C38.8628 60.0863 38.4942 59.9977 38.1675 59.839C37.8455 59.6803 37.6005 59.433 37.4325 59.097C37.2972 58.817 37.2225 58.5347 37.2085 58.25C37.1992 57.9607 37.1945 57.6317 37.1945 57.263V50.34H38.2165V57.221C38.2165 57.5383 38.2188 57.8043 38.2235 58.019C38.2328 58.229 38.2818 58.4157 38.3705 58.579C38.5385 58.8917 38.8045 59.0783 39.1685 59.139C39.5372 59.1997 39.9922 59.1857 40.5335 59.097V60ZM35.5775 53.322V52.44H40.5335V53.322H35.5775ZM44.9657 60V49.71H45.9947V60H44.9657ZM48.2333 51.005V49.85H49.2623V51.005H48.2333ZM48.2333 60V52.44H49.2623V60H48.2333ZM51.3539 60L51.3609 49.92H52.3969V56.08L55.7709 52.44H57.1429L53.6009 56.22L57.6049 60H56.1069L52.3969 56.36V60H51.3539ZM61.3685 60.21C60.6311 60.21 59.9918 60.0467 59.4505 59.72C58.9138 59.3933 58.4961 58.9337 58.1975 58.341C57.8988 57.7483 57.7495 57.053 57.7495 56.255C57.7495 55.429 57.8965 54.715 58.1905 54.113C58.4845 53.511 58.8975 53.0467 59.4295 52.72C59.9661 52.3933 60.5985 52.23 61.3265 52.23C62.0731 52.23 62.7101 52.4027 63.2375 52.748C63.7648 53.0887 64.1638 53.5787 64.4345 54.218C64.7051 54.8573 64.8288 55.6203 64.8055 56.507H63.7555V56.143C63.7368 55.163 63.5245 54.4233 63.1185 53.924C62.7171 53.4247 62.1291 53.175 61.3545 53.175C60.5425 53.175 59.9195 53.4387 59.4855 53.966C59.0561 54.4933 58.8415 55.2447 58.8415 56.22C58.8415 57.172 59.0561 57.9117 59.4855 58.439C59.9195 58.9617 60.5331 59.223 61.3265 59.223C61.8678 59.223 62.3391 59.0993 62.7405 58.852C63.1465 58.6 63.4661 58.2383 63.6995 57.767L64.6585 58.138C64.3598 58.796 63.9188 59.307 63.3355 59.671C62.7568 60.0303 62.1011 60.21 61.3685 60.21ZM58.4775 56.507V55.646H64.2525V56.507H58.4775ZM72.5566 60.21C71.8613 60.21 71.2733 60.035 70.7926 59.685C70.312 59.3303 69.948 58.852 69.7006 58.25C69.4533 57.6433 69.3296 56.9643 69.3296 56.213C69.3296 55.4477 69.4533 54.7663 69.7006 54.169C69.9526 53.567 70.3213 53.0933 70.8066 52.748C71.292 52.4027 71.8893 52.23 72.5986 52.23C73.2893 52.23 73.882 52.405 74.3766 52.755C74.8713 53.105 75.2493 53.581 75.5106 54.183C75.7766 54.785 75.9096 55.4617 75.9096 56.213C75.9096 56.969 75.7766 57.648 75.5106 58.25C75.2446 58.852 74.862 59.3303 74.3626 59.685C73.8633 60.035 73.2613 60.21 72.5566 60.21ZM69.1546 63.36V52.44H70.0786V58.131H70.1906V63.36H69.1546ZM72.4516 59.251C72.979 59.251 73.4176 59.118 73.7676 58.852C74.1176 58.586 74.379 58.2243 74.5516 57.767C74.729 57.305 74.8176 56.787 74.8176 56.213C74.8176 55.6437 74.7313 55.1303 74.5586 54.673C74.386 54.2157 74.1223 53.854 73.7676 53.588C73.4176 53.322 72.972 53.189 72.4306 53.189C71.9033 53.189 71.4646 53.3173 71.1146 53.574C70.7693 53.8307 70.5103 54.1877 70.3376 54.645C70.165 55.0977 70.0786 55.6203 70.0786 56.213C70.0786 56.7963 70.165 57.319 70.3376 57.781C70.5103 58.2383 70.7716 58.5977 71.1216 58.859C71.4716 59.1203 71.915 59.251 72.4516 59.251ZM82.9068 60V56.143C82.9068 55.723 82.8671 55.338 82.7878 54.988C82.7085 54.6333 82.5801 54.3253 82.4028 54.064C82.2301 53.798 82.0038 53.5927 81.7238 53.448C81.4485 53.3033 81.1125 53.231 80.7158 53.231C80.3518 53.231 80.0298 53.294 79.7498 53.42C79.4745 53.546 79.2411 53.728 79.0498 53.966C78.8631 54.1993 78.7208 54.484 78.6228 54.82C78.5248 55.156 78.4758 55.5387 78.4758 55.968L77.7478 55.807C77.7478 55.0323 77.8831 54.3813 78.1538 53.854C78.4245 53.3267 78.7978 52.9277 79.2738 52.657C79.7498 52.3863 80.2958 52.251 80.9118 52.251C81.3645 52.251 81.7588 52.321 82.0948 52.461C82.4355 52.601 82.7225 52.79 82.9558 53.028C83.1938 53.266 83.3851 53.539 83.5298 53.847C83.6745 54.1503 83.7795 54.4747 83.8448 54.82C83.9101 55.1607 83.9428 55.5013 83.9428 55.842V60H82.9068ZM77.4398 60V49.92H78.3708V55.611H78.4758V60H77.4398ZM88.9163 60.21C88.165 60.21 87.5233 60.0397 86.9913 59.699C86.4593 59.3583 86.051 58.887 85.7663 58.285C85.4816 57.683 85.3393 56.9923 85.3393 56.213C85.3393 55.4197 85.484 54.7243 85.7733 54.127C86.0626 53.5297 86.4733 53.0653 87.0053 52.734C87.542 52.398 88.179 52.23 88.9163 52.23C89.6723 52.23 90.3163 52.4003 90.8483 52.741C91.385 53.077 91.7933 53.546 92.0733 54.148C92.358 54.7453 92.5003 55.4337 92.5003 56.213C92.5003 57.0063 92.358 57.704 92.0733 58.306C91.7886 58.9033 91.378 59.37 90.8413 59.706C90.3046 60.042 89.663 60.21 88.9163 60.21ZM88.9163 59.223C89.7563 59.223 90.3816 58.9453 90.7923 58.39C91.203 57.83 91.4083 57.1043 91.4083 56.213C91.4083 55.2983 91.2006 54.5703 90.7853 54.029C90.3746 53.4877 89.7516 53.217 88.9163 53.217C88.3516 53.217 87.885 53.3453 87.5163 53.602C87.1523 53.854 86.8793 54.2063 86.6973 54.659C86.52 55.107 86.4313 55.625 86.4313 56.213C86.4313 57.123 86.6413 57.8533 87.0613 58.404C87.4813 58.95 88.0996 59.223 88.9163 59.223ZM99.5045 60V56.143C99.5045 55.723 99.4648 55.338 99.3855 54.988C99.3061 54.6333 99.1778 54.3253 99.0005 54.064C98.8278 53.798 98.6015 53.5927 98.3215 53.448C98.0461 53.3033 97.7101 53.231 97.3135 53.231C96.9495 53.231 96.6275 53.294 96.3475 53.42C96.0721 53.546 95.8388 53.728 95.6475 53.966C95.4608 54.1993 95.3185 54.484 95.2205 54.82C95.1225 55.156 95.0735 55.5387 95.0735 55.968L94.3455 55.807C94.3455 55.0323 94.4808 54.3813 94.7515 53.854C95.0221 53.3267 95.3955 52.9277 95.8715 52.657C96.3475 52.3863 96.8935 52.251 97.5095 52.251C97.9621 52.251 98.3565 52.321 98.6925 52.461C99.0331 52.601 99.3201 52.79 99.5535 53.028C99.7915 53.266 99.9828 53.539 100.127 53.847C100.272 54.1503 100.377 54.4747 100.442 54.82C100.508 55.1607 100.54 55.5013 100.54 55.842V60H99.5045ZM94.0375 60V52.44H94.9685V54.302H95.0735V60H94.0375ZM105.515 60.21C104.778 60.21 104.138 60.0467 103.597 59.72C103.06 59.3933 102.643 58.9337 102.344 58.341C102.045 57.7483 101.896 57.053 101.896 56.255C101.896 55.429 102.043 54.715 102.337 54.113C102.631 53.511 103.044 53.0467 103.576 52.72C104.113 52.3933 104.745 52.23 105.473 52.23C106.22 52.23 106.857 52.4027 107.384 52.748C107.911 53.0887 108.31 53.5787 108.581 54.218C108.852 54.8573 108.975 55.6203 108.952 56.507H107.902V56.143C107.883 55.163 107.671 54.4233 107.265 53.924C106.864 53.4247 106.276 53.175 105.501 53.175C104.689 53.175 104.066 53.4387 103.632 53.966C103.203 54.4933 102.988 55.2447 102.988 56.22C102.988 57.172 103.203 57.9117 103.632 58.439C104.066 58.9617 104.68 59.223 105.473 59.223C106.014 59.223 106.486 59.0993 106.887 58.852C107.293 58.6 107.613 58.2383 107.846 57.767L108.805 58.138C108.506 58.796 108.065 59.307 107.482 59.671C106.903 60.0303 106.248 60.21 105.515 60.21ZM102.624 56.507V55.646H108.399V56.507H102.624ZM116.444 60.21C115.683 60.21 115.039 60.0397 114.512 59.699C113.985 59.3583 113.583 58.8893 113.308 58.292C113.037 57.69 112.897 56.9993 112.888 56.22C112.897 55.4267 113.042 54.7313 113.322 54.134C113.602 53.532 114.006 53.0653 114.533 52.734C115.06 52.398 115.7 52.23 116.451 52.23C117.216 52.23 117.881 52.4167 118.446 52.79C119.015 53.1633 119.405 53.6743 119.615 54.323L118.607 54.645C118.43 54.1923 118.147 53.8423 117.76 53.595C117.377 53.343 116.939 53.217 116.444 53.217C115.889 53.217 115.429 53.3453 115.065 53.602C114.701 53.854 114.43 54.2063 114.253 54.659C114.076 55.1117 113.985 55.632 113.98 56.22C113.989 57.1253 114.199 57.8533 114.61 58.404C115.021 58.95 115.632 59.223 116.444 59.223C116.957 59.223 117.394 59.1063 117.753 58.873C118.117 58.635 118.392 58.2897 118.579 57.837L119.615 58.145C119.335 58.817 118.924 59.3303 118.383 59.685C117.842 60.035 117.195 60.21 116.444 60.21ZM123.182 60.21C122.613 60.21 122.134 60.1073 121.747 59.902C121.364 59.6967 121.077 59.4237 120.886 59.083C120.695 58.7423 120.599 58.3713 120.599 57.97C120.599 57.5593 120.681 57.2093 120.844 56.92C121.012 56.626 121.238 56.3857 121.523 56.199C121.812 56.0123 122.146 55.87 122.524 55.772C122.907 55.6787 123.329 55.597 123.791 55.527C124.258 55.4523 124.713 55.3893 125.156 55.338C125.604 55.282 125.996 55.2283 126.332 55.177L125.968 55.401C125.982 54.6543 125.837 54.1013 125.534 53.742C125.231 53.3827 124.703 53.203 123.952 53.203C123.434 53.203 122.995 53.3197 122.636 53.553C122.281 53.7863 122.032 54.155 121.887 54.659L120.886 54.365C121.059 53.6883 121.406 53.1633 121.929 52.79C122.452 52.4167 123.131 52.23 123.966 52.23C124.657 52.23 125.242 52.3607 125.723 52.622C126.208 52.8787 126.551 53.252 126.752 53.742C126.845 53.9613 126.906 54.2063 126.934 54.477C126.962 54.7477 126.976 55.023 126.976 55.303V60H126.059V58.103L126.325 58.215C126.068 58.8637 125.669 59.3583 125.128 59.699C124.587 60.0397 123.938 60.21 123.182 60.21ZM123.301 59.321C123.782 59.321 124.202 59.2347 124.561 59.062C124.92 58.8893 125.21 58.6537 125.429 58.355C125.648 58.0517 125.791 57.711 125.856 57.333C125.912 57.0903 125.942 56.8243 125.947 56.535C125.952 56.241 125.954 56.0217 125.954 55.877L126.346 56.08C125.996 56.1267 125.616 56.1733 125.205 56.22C124.799 56.2667 124.398 56.3203 124.001 56.381C123.609 56.4417 123.254 56.514 122.937 56.598C122.722 56.6587 122.515 56.745 122.314 56.857C122.113 56.9643 121.948 57.109 121.817 57.291C121.691 57.473 121.628 57.6993 121.628 57.97C121.628 58.1893 121.682 58.4017 121.789 58.607C121.901 58.8123 122.078 58.9827 122.321 59.118C122.568 59.2533 122.895 59.321 123.301 59.321ZM128.938 60V49.71H129.967V60H128.938ZM132.206 60V49.71H133.235V60H132.206ZM138.155 60.203C137.268 60.203 136.538 60.0117 135.964 59.629C135.394 59.2463 135.044 58.7143 134.914 58.033L135.964 57.858C136.076 58.2873 136.33 58.6303 136.727 58.887C137.128 59.139 137.623 59.265 138.211 59.265C138.785 59.265 139.237 59.146 139.569 58.908C139.9 58.6653 140.066 58.3363 140.066 57.921C140.066 57.6877 140.012 57.4987 139.905 57.354C139.802 57.2047 139.59 57.067 139.268 56.941C138.946 56.815 138.465 56.6657 137.826 56.493C137.14 56.3063 136.603 56.1197 136.216 55.933C135.828 55.7463 135.553 55.5317 135.39 55.289C135.226 55.0417 135.145 54.7407 135.145 54.386C135.145 53.9567 135.266 53.581 135.509 53.259C135.751 52.9323 136.087 52.6803 136.517 52.503C136.946 52.321 137.445 52.23 138.015 52.23C138.584 52.23 139.093 52.3233 139.541 52.51C139.993 52.692 140.357 52.9487 140.633 53.28C140.908 53.6113 141.071 53.9963 141.123 54.435L140.073 54.624C140.003 54.1807 139.781 53.8307 139.408 53.574C139.039 53.3127 138.57 53.1773 138.001 53.168C137.464 53.154 137.028 53.2567 136.692 53.476C136.356 53.6907 136.188 53.9777 136.188 54.337C136.188 54.5377 136.248 54.7103 136.37 54.855C136.491 54.995 136.71 55.128 137.028 55.254C137.35 55.38 137.807 55.5177 138.4 55.667C139.095 55.8443 139.641 56.031 140.038 56.227C140.434 56.423 140.717 56.654 140.885 56.92C141.053 57.186 141.137 57.515 141.137 57.907C141.137 58.621 140.871 59.1833 140.339 59.594C139.811 60 139.083 60.203 138.155 60.203ZM144.663 57.249C144.663 56.885 144.679 56.5653 144.712 56.29C144.749 56.01 144.843 55.73 144.992 55.45C145.132 55.184 145.305 54.9647 145.51 54.792C145.715 54.6147 145.93 54.449 146.154 54.295C146.378 54.1363 146.59 53.9497 146.791 53.735C146.973 53.525 147.094 53.3127 147.155 53.098C147.216 52.8833 147.246 52.657 147.246 52.419C147.246 52.181 147.216 51.9687 147.155 51.782C147.099 51.5953 147.01 51.4343 146.889 51.299C146.702 51.0703 146.474 50.914 146.203 50.83C145.932 50.746 145.65 50.704 145.356 50.704C145.067 50.704 144.796 50.746 144.544 50.83C144.297 50.9093 144.091 51.033 143.928 51.201C143.769 51.3503 143.653 51.53 143.578 51.74C143.508 51.95 143.473 52.1717 143.473 52.405H142.409C142.428 52.0363 142.507 51.677 142.647 51.327C142.792 50.9723 143.002 50.676 143.277 50.438C143.552 50.186 143.872 50.004 144.236 49.892C144.605 49.7753 144.976 49.717 145.349 49.717C145.806 49.717 146.24 49.787 146.651 49.927C147.062 50.0623 147.407 50.291 147.687 50.613C147.911 50.851 148.074 51.124 148.177 51.432C148.284 51.7353 148.338 52.0597 148.338 52.405C148.338 52.7923 148.266 53.1563 148.121 53.497C147.976 53.8377 147.773 54.141 147.512 54.407C147.353 54.5797 147.174 54.7407 146.973 54.89C146.772 55.0347 146.579 55.1863 146.392 55.345C146.21 55.499 146.07 55.667 145.972 55.849C145.851 56.073 145.783 56.2853 145.769 56.486C145.76 56.6867 145.755 56.941 145.755 57.249H144.663ZM144.67 60V58.628H145.755V60H144.67Z" fill="#565973"/>
<path d="M12.6567 101.21C11.6487 101.21 10.7901 100.991 10.0807 100.552C9.37139 100.109 8.82773 99.4927 8.44973 98.704C8.07639 97.9153 7.88973 97.0007 7.88973 95.96C7.88973 94.9193 8.07639 94.0047 8.44973 93.216C8.82773 92.4273 9.37139 91.8137 10.0807 91.375C10.7901 90.9317 11.6487 90.71 12.6567 90.71C13.8187 90.71 14.7801 91.004 15.5407 91.592C16.3061 92.18 16.8381 92.971 17.1367 93.965L15.6527 94.364C15.4567 93.6593 15.1067 93.1063 14.6027 92.705C14.1034 92.3037 13.4547 92.103 12.6567 92.103C11.9427 92.103 11.3477 92.264 10.8717 92.586C10.3957 92.908 10.0364 93.3583 9.79373 93.937C9.55573 94.5157 9.43673 95.19 9.43673 95.96C9.43206 96.73 9.54873 97.4043 9.78673 97.983C10.0294 98.5617 10.3887 99.012 10.8647 99.334C11.3454 99.656 11.9427 99.817 12.6567 99.817C13.4547 99.817 14.1034 99.6163 14.6027 99.215C15.1067 98.809 15.4567 98.256 15.6527 97.556L17.1367 97.955C16.8381 98.949 16.3061 99.74 15.5407 100.328C14.7801 100.916 13.8187 101.21 12.6567 101.21ZM21.9593 101.21C21.2033 101.21 20.5476 101.04 19.9923 100.699C19.437 100.358 19.0076 99.8893 18.7043 99.292C18.4056 98.69 18.2563 97.997 18.2563 97.213C18.2563 96.4243 18.4103 95.7313 18.7183 95.134C19.0263 94.532 19.458 94.0653 20.0133 93.734C20.5686 93.398 21.2173 93.23 21.9593 93.23C22.7153 93.23 23.371 93.4003 23.9263 93.741C24.4816 94.0817 24.911 94.5507 25.2143 95.148C25.5176 95.7453 25.6693 96.4337 25.6693 97.213C25.6693 98.0017 25.5153 98.697 25.2073 99.299C24.904 99.8963 24.4746 100.365 23.9193 100.706C23.364 101.042 22.7106 101.21 21.9593 101.21ZM21.9593 99.831C22.6826 99.831 23.2216 99.5883 23.5763 99.103C23.9356 98.613 24.1153 97.983 24.1153 97.213C24.1153 96.4243 23.9333 95.7943 23.5693 95.323C23.21 94.847 22.6733 94.609 21.9593 94.609C21.4693 94.609 21.0656 94.721 20.7483 94.945C20.431 95.1643 20.1953 95.47 20.0413 95.862C19.8873 96.2493 19.8103 96.6997 19.8103 97.213C19.8103 98.0063 19.9923 98.641 20.3563 99.117C20.7203 99.593 21.2546 99.831 21.9593 99.831ZM32.5135 101V97.283C32.5135 96.989 32.4879 96.688 32.4365 96.38C32.3899 96.0673 32.2965 95.778 32.1565 95.512C32.0212 95.246 31.8275 95.0313 31.5755 94.868C31.3282 94.7047 31.0039 94.623 30.6025 94.623C30.3412 94.623 30.0939 94.6673 29.8605 94.756C29.6272 94.84 29.4219 94.9777 29.2445 95.169C29.0719 95.3603 28.9342 95.6123 28.8315 95.925C28.7335 96.2377 28.6845 96.618 28.6845 97.066L27.7745 96.723C27.7745 96.037 27.9029 95.4327 28.1595 94.91C28.4162 94.3827 28.7849 93.972 29.2655 93.678C29.7462 93.384 30.3272 93.237 31.0085 93.237C31.5312 93.237 31.9699 93.321 32.3245 93.489C32.6792 93.657 32.9662 93.8787 33.1855 94.154C33.4095 94.4247 33.5799 94.721 33.6965 95.043C33.8132 95.365 33.8925 95.68 33.9345 95.988C33.9765 96.296 33.9975 96.5667 33.9975 96.8V101H32.5135ZM27.2005 101V93.44H28.5095V95.624H28.6845V101H27.2005ZM40.1468 101C39.6708 101.093 39.2042 101.133 38.7468 101.119C38.2895 101.105 37.8812 101.016 37.5218 100.853C37.1625 100.69 36.8918 100.433 36.7098 100.083C36.5465 99.7703 36.4578 99.453 36.4438 99.131C36.4345 98.8043 36.4298 98.4357 36.4298 98.025V91.34H37.8998V97.955C37.8998 98.2583 37.9022 98.522 37.9068 98.746C37.9162 98.97 37.9652 99.159 38.0538 99.313C38.2218 99.6023 38.4878 99.768 38.8518 99.81C39.2205 99.8473 39.6522 99.831 40.1468 99.761V101ZM34.9808 94.616V93.44H40.1468V94.616H34.9808ZM43.8757 101.21C43.3157 101.21 42.8467 101.107 42.4687 100.902C42.0907 100.692 41.8037 100.417 41.6077 100.076C41.4164 99.7307 41.3207 99.3527 41.3207 98.942C41.3207 98.5593 41.3884 98.2233 41.5237 97.934C41.6591 97.6447 41.8597 97.3997 42.1257 97.199C42.3917 96.9937 42.7184 96.828 43.1057 96.702C43.4417 96.604 43.8221 96.5177 44.2467 96.443C44.6714 96.3683 45.1171 96.2983 45.5837 96.233C46.0551 96.1677 46.5217 96.1023 46.9837 96.037L46.4517 96.331C46.4611 95.7383 46.3351 95.2997 46.0737 95.015C45.8171 94.7257 45.3737 94.581 44.7437 94.581C44.3471 94.581 43.9831 94.6743 43.6517 94.861C43.3204 95.043 43.0894 95.3463 42.9587 95.771L41.5937 95.351C41.7804 94.7023 42.1351 94.1867 42.6577 93.804C43.1851 93.4213 43.8851 93.23 44.7577 93.23C45.4344 93.23 46.0224 93.3467 46.5217 93.58C47.0257 93.8087 47.3944 94.1727 47.6277 94.672C47.7491 94.9193 47.8237 95.1807 47.8517 95.456C47.8797 95.7313 47.8937 96.0277 47.8937 96.345V101H46.5987V99.271L46.8507 99.495C46.5381 100.074 46.1391 100.505 45.6537 100.79C45.1731 101.07 44.5804 101.21 43.8757 101.21ZM44.1347 100.013C44.5501 100.013 44.9071 99.9407 45.2057 99.796C45.5044 99.6467 45.7447 99.4577 45.9267 99.229C46.1087 99.0003 46.2277 98.7623 46.2837 98.515C46.3631 98.291 46.4074 98.039 46.4167 97.759C46.4307 97.479 46.4377 97.255 46.4377 97.087L46.9137 97.262C46.4517 97.332 46.0317 97.395 45.6537 97.451C45.2757 97.507 44.9327 97.563 44.6247 97.619C44.3214 97.6703 44.0507 97.7333 43.8127 97.808C43.6121 97.878 43.4324 97.962 43.2737 98.06C43.1197 98.158 42.9961 98.277 42.9027 98.417C42.8141 98.557 42.7697 98.7273 42.7697 98.928C42.7697 99.124 42.8187 99.306 42.9167 99.474C43.0147 99.6373 43.1641 99.768 43.3647 99.866C43.5654 99.964 43.8221 100.013 44.1347 100.013ZM52.9454 101.21C52.1708 101.21 51.5128 101.037 50.9714 100.692C50.4301 100.347 50.0148 99.873 49.7254 99.271C49.4408 98.669 49.2961 97.9853 49.2914 97.22C49.2961 96.4407 49.4454 95.7523 49.7394 95.155C50.0334 94.553 50.4534 94.0817 50.9994 93.741C51.5454 93.4003 52.2011 93.23 52.9664 93.23C53.7924 93.23 54.4971 93.4353 55.0804 93.846C55.6684 94.2567 56.0558 94.819 56.2424 95.533L54.7864 95.953C54.6418 95.5283 54.4038 95.1993 54.0724 94.966C53.7458 94.728 53.3701 94.609 52.9454 94.609C52.4648 94.609 52.0704 94.7233 51.7624 94.952C51.4544 95.176 51.2258 95.484 51.0764 95.876C50.9271 96.268 50.8501 96.716 50.8454 97.22C50.8501 97.9993 51.0274 98.6293 51.3774 99.11C51.7321 99.5907 52.2548 99.831 52.9454 99.831C53.4168 99.831 53.7971 99.7237 54.0864 99.509C54.3804 99.2897 54.6044 98.977 54.7584 98.571L56.2424 98.921C55.9951 99.6583 55.5868 100.225 55.0174 100.622C54.4481 101.014 53.7574 101.21 52.9454 101.21ZM61.9945 101C61.5185 101.093 61.0518 101.133 60.5945 101.119C60.1371 101.105 59.7288 101.016 59.3695 100.853C59.0101 100.69 58.7395 100.433 58.5575 100.083C58.3941 99.7703 58.3055 99.453 58.2915 99.131C58.2821 98.8043 58.2775 98.4357 58.2775 98.025V91.34H59.7475V97.955C59.7475 98.2583 59.7498 98.522 59.7545 98.746C59.7638 98.97 59.8128 99.159 59.9015 99.313C60.0695 99.6023 60.3355 99.768 60.6995 99.81C61.0681 99.8473 61.4998 99.831 61.9945 99.761V101ZM56.8285 94.616V93.44H61.9945V94.616H56.8285ZM69.2401 101.203C68.7175 101.203 68.2788 101.119 67.9241 100.951C67.5695 100.783 67.2801 100.564 67.0561 100.293C66.8368 100.018 66.6688 99.719 66.5521 99.397C66.4355 99.075 66.3561 98.76 66.3141 98.452C66.2721 98.144 66.2511 97.8733 66.2511 97.64V93.44H67.7351V97.157C67.7351 97.451 67.7585 97.7543 67.8051 98.067C67.8565 98.375 67.9498 98.662 68.0851 98.928C68.2251 99.194 68.4188 99.4087 68.6661 99.572C68.9181 99.7353 69.2448 99.817 69.6461 99.817C69.9075 99.817 70.1548 99.775 70.3881 99.691C70.6215 99.6023 70.8245 99.4623 70.9971 99.271C71.1745 99.0797 71.3121 98.8277 71.4101 98.515C71.5128 98.2023 71.5641 97.822 71.5641 97.374L72.4741 97.717C72.4741 98.403 72.3458 99.0097 72.0891 99.537C71.8325 100.06 71.4638 100.468 70.9831 100.762C70.5025 101.056 69.9215 101.203 69.2401 101.203ZM71.7391 101V98.816H71.5641V93.44H73.0411V101H71.7391ZM77.8954 101.203C76.9761 101.203 76.2271 101 75.6484 100.594C75.0697 100.188 74.7151 99.6163 74.5844 98.879L76.0824 98.648C76.1757 99.04 76.3904 99.3503 76.7264 99.579C77.0671 99.803 77.4894 99.915 77.9934 99.915C78.4507 99.915 78.8077 99.8217 79.0644 99.635C79.3257 99.4483 79.4564 99.1917 79.4564 98.865C79.4564 98.6737 79.4097 98.5197 79.3164 98.403C79.2277 98.2817 79.0387 98.1673 78.7494 98.06C78.4601 97.9527 78.0191 97.8197 77.4264 97.661C76.7777 97.493 76.2621 97.3133 75.8794 97.122C75.5014 96.926 75.2307 96.6997 75.0674 96.443C74.9087 96.1817 74.8294 95.8667 74.8294 95.498C74.8294 95.0407 74.9507 94.6417 75.1934 94.301C75.4361 93.9603 75.7767 93.6967 76.2154 93.51C76.6587 93.3233 77.1767 93.23 77.7694 93.23C78.3481 93.23 78.8637 93.321 79.3164 93.503C79.7691 93.685 80.1354 93.944 80.4154 94.28C80.6954 94.6113 80.8634 95.001 80.9194 95.449L79.4214 95.722C79.3701 95.358 79.1997 95.071 78.9104 94.861C78.6211 94.651 78.2454 94.5367 77.7834 94.518C77.3401 94.4993 76.9807 94.574 76.7054 94.742C76.4301 94.9053 76.2924 95.1317 76.2924 95.421C76.2924 95.589 76.3437 95.7313 76.4464 95.848C76.5537 95.9647 76.7591 96.0767 77.0624 96.184C77.3657 96.2913 77.8137 96.4197 78.4064 96.569C79.0411 96.7323 79.5451 96.9143 79.9184 97.115C80.2917 97.311 80.5577 97.5467 80.7164 97.822C80.8797 98.0927 80.9614 98.4217 80.9614 98.809C80.9614 99.5557 80.6884 100.141 80.1424 100.566C79.6011 100.991 78.8521 101.203 77.8954 101.203Z" fill="#22C55E"/>
<path d="M99.4108 100.411L100.589 101.589L106.178 96L100.589 90.4108L99.4108 91.5892L102.988 95.1667H95V96.8333H102.988L99.4108 100.411Z" fill="#22C55E"/>
</svg>
