<svg width="57" height="57" viewBox="0 0 57 57" fill="none" xmlns="http://www.w3.org/2000/svg">
<rect width="57" height="57" fill="#E5E5E5"/>
<rect width="390" height="4157" transform="translate(-308 -2815)" fill="white"/>
<rect width="390" height="4157" transform="translate(-308 -2815)" fill="white"/>
<path d="M-294.5 6.75002C-294.5 2.60788 -291.142 -0.75 -287 -0.75H63.4C67.5421 -0.75 70.9 2.60786 70.9 6.75V474.55H-294.5V6.75002Z" fill="white"/>
<path d="M-294.5 6.75002C-294.5 2.60788 -291.142 -0.75 -287 -0.75H63.4C67.5421 -0.75 70.9 2.60786 70.9 6.75V474.55H-294.5V6.75002Z" stroke="#E2E5F1"/>
<g filter="url(#filter0_i_20005128_11609)">
<path d="M-294.2 6.55004C-294.2 2.68405 -291.066 -0.449951 -287.2 -0.449951H63.6C67.466 -0.449951 70.6 2.68406 70.6 6.55005V73.15H-294.2V6.55004Z" fill="white"/>
<g filter="url(#filter1_d_20005128_11609)">
<g clip-path="url(#clip0_20005128_11609)">
<rect x="46.6" y="54.3501" width="36" height="36" rx="18" transform="rotate(180 46.6 54.3501)" fill="#6366F1"/>
<g clip-path="url(#clip1_20005128_11609)">
<path d="M24.7792 39.4397L28.6 35.6189L32.4208 39.4397L33.6 38.2606L28.6 33.2606L23.6 38.2606L24.7792 39.4397Z" fill="white"/>
</g>
</g>
</g>
</g>
<defs>
<filter id="filter0_i_20005128_11609" x="-294.2" y="-0.449951" width="364.8" height="73.6001" filterUnits="userSpaceOnUse" color-interpolation-filters="sRGB">
<feFlood flood-opacity="0" result="BackgroundImageFix"/>
<feBlend mode="normal" in="SourceGraphic" in2="BackgroundImageFix" result="shape"/>
<feColorMatrix in="SourceAlpha" type="matrix" values="0 0 0 0 0 0 0 0 0 0 0 0 0 0 0 0 0 0 127 0" result="hardAlpha"/>
<feOffset dy="-1"/>
<feComposite in2="hardAlpha" operator="arithmetic" k2="-1" k3="1"/>
<feColorMatrix type="matrix" values="0 0 0 0 0.886275 0 0 0 0 0.898039 0 0 0 0 0.945098 0 0 0 1 0"/>
<feBlend mode="normal" in2="shape" result="effect1_innerShadow_20005128_11609"/>
</filter>
<filter id="filter1_d_20005128_11609" x="0.599976" y="0.350098" width="56" height="56" filterUnits="userSpaceOnUse" color-interpolation-filters="sRGB">
<feFlood flood-opacity="0" result="BackgroundImageFix"/>
<feColorMatrix in="SourceAlpha" type="matrix" values="0 0 0 0 0 0 0 0 0 0 0 0 0 0 0 0 0 0 127 0" result="hardAlpha"/>
<feMorphology radius="8" operator="erode" in="SourceAlpha" result="effect1_dropShadow_20005128_11609"/>
<feOffset dy="-8"/>
<feGaussianBlur stdDeviation="9"/>
<feComposite in2="hardAlpha" operator="out"/>
<feColorMatrix type="matrix" values="0 0 0 0 0.388235 0 0 0 0 0.4 0 0 0 0 0.945098 0 0 0 0.9 0"/>
<feBlend mode="normal" in2="BackgroundImageFix" result="effect1_dropShadow_20005128_11609"/>
<feBlend mode="normal" in="SourceGraphic" in2="effect1_dropShadow_20005128_11609" result="shape"/>
</filter>
<clipPath id="clip0_20005128_11609">
<rect x="46.6" y="54.3501" width="36" height="36" rx="18" transform="rotate(180 46.6 54.3501)" fill="white"/>
</clipPath>
<clipPath id="clip1_20005128_11609">
<rect width="10" height="10" fill="white" transform="matrix(-1 0 0 -1 33.6 41.3501)"/>
</clipPath>
</defs>
</svg>
