<svg width="159" height="99" viewBox="0 0 159 99" fill="none" xmlns="http://www.w3.org/2000/svg">
<rect x="0.5" y="0.5" width="157.5" height="97.54" rx="7.5" fill="white"/>
<rect x="0.5" y="0.5" width="157.5" height="97.54" rx="7.5" stroke="#E2E5F1"/>
<g clip-path="url(#clip0_20005128_14628)">
<g clip-path="url(#clip1_20005128_14628)">
<path d="M27.9222 60.9813H51.3446V37.559H27.9222V60.9813ZM46.9529 46.9828H42.0122V42.0421H46.9529V46.9828ZM32.4969 42.0421H37.4376V51.5575H46.9529V56.4981H32.4969V42.0421ZM66.7155 37.559C64.4282 37.559 62.1408 38.2909 60.2195 39.5718C58.2981 40.8527 56.7427 42.6826 55.9193 44.8784C55.0043 46.9828 54.8213 49.3616 55.2788 51.649C55.7363 53.9363 56.8342 56.0406 58.4811 57.6875C60.128 59.3344 62.2323 60.4323 64.5196 60.8898C66.807 61.3473 69.1858 61.0728 71.2902 60.2493C73.4173 59.3255 75.2521 57.8387 76.5968 55.9492C77.8777 54.0278 78.6096 51.7405 78.6096 49.4531C78.6096 46.3423 77.3287 43.3231 75.1329 41.1272C72.8456 38.7484 69.8263 37.559 66.7155 37.559ZM66.7155 56.4981C65.2516 56.4981 63.8792 56.0406 62.6898 55.3087C61.5004 54.4853 60.5854 53.3873 60.0365 52.1064C59.4875 50.8255 59.3045 49.3616 59.6705 47.8977C59.945 46.5253 60.6769 45.2444 61.6833 44.238C62.6898 43.2316 63.9707 42.4996 65.3431 42.2251C66.7155 41.9506 68.1794 42.1336 69.5518 42.5911C70.8327 43.1401 72.0221 44.055 72.7541 45.2444C73.5775 46.4338 73.9435 47.8062 73.9435 49.2701C73.9435 51.1915 73.2115 53.0214 71.8391 54.3938C70.4667 55.7662 68.6369 56.4981 66.7155 56.4981ZM120.422 37.559C118.135 37.559 115.847 38.2909 113.926 39.5718C112.005 40.8527 110.449 42.6826 109.626 44.8784C108.711 46.9828 108.528 49.3616 108.985 51.649C109.443 53.9363 110.541 56.0406 112.188 57.6875C113.835 59.3344 115.939 60.4323 118.226 60.8898C120.514 61.3473 122.893 61.0728 124.997 60.2493C127.124 59.3255 128.959 57.8387 130.303 55.9492C131.584 54.0278 132.316 51.7405 132.316 49.4531C132.316 46.3423 131.035 43.3231 128.84 41.1272C126.552 38.7484 123.533 37.559 120.422 37.559ZM120.422 56.4981C118.958 56.4981 117.586 56.0406 116.396 55.3087C115.207 54.4853 114.292 53.3873 113.743 52.1064C113.194 50.8255 113.011 49.3616 113.377 47.8977C113.652 46.5253 114.384 45.2444 115.39 44.238C116.396 43.2316 117.677 42.4996 119.05 42.2251C120.422 41.9506 121.886 42.1336 123.258 42.5911C124.539 43.1401 125.729 44.055 126.461 45.2444C127.284 46.4338 127.65 47.8062 127.65 49.2701C127.65 51.1915 126.918 53.0214 125.546 54.3938C124.173 55.7662 122.344 56.4981 120.422 56.4981ZM93.6146 37.559C91.3272 37.559 89.0399 38.2909 87.1185 39.5718C85.1972 40.8527 83.6418 42.6826 82.8183 44.8784C81.9034 46.9828 81.7204 49.3616 82.1779 51.649C82.6354 53.9363 83.7333 56.0406 85.3802 57.6875C87.027 59.3344 89.1314 60.4323 91.4187 60.8898C93.7061 61.3473 96.0849 61.0728 98.1892 60.2493C100.316 59.3255 102.151 57.8387 103.496 55.9492C104.777 54.0278 105.509 51.7405 105.509 49.4531C105.509 46.3423 104.228 43.3231 102.032 41.1272C99.6532 38.7484 96.7253 37.559 93.6146 37.559ZM93.6146 56.4981C92.2422 56.4981 90.9613 56.1321 89.8633 55.4002C88.7654 54.6682 87.8505 53.7533 87.21 52.5639C86.5696 51.3745 86.2951 50.0936 86.4781 48.7212C86.5696 47.4403 87.027 46.1593 87.8505 45.0614C88.6739 43.9635 89.6804 43.1401 90.9613 42.5911C92.1507 42.0421 93.5231 41.9506 94.804 42.1336C96.0849 42.3166 97.3658 42.8656 98.3722 43.7805C99.3787 44.604 100.111 45.7934 100.568 46.9828H93.7061V51.466H100.568C100.111 52.9299 99.1957 54.1193 97.9148 55.0342C96.5424 56.0406 95.0785 56.4981 93.6146 56.4981Z" fill="#B4B7C9"/>
</g>
</g>
<defs>
<clipPath id="clip0_20005128_14628">
<rect width="140.9" height="32.94" fill="white" transform="translate(8.80005 32.8)"/>
</clipPath>
<clipPath id="clip1_20005128_14628">
<rect width="140.9" height="32.94" fill="white" transform="translate(8.80005 32.8)"/>
</clipPath>
</defs>
</svg>
