<svg width="159" height="99" viewBox="0 0 159 99" fill="none" xmlns="http://www.w3.org/2000/svg">
<rect x="1" y="0.5" width="157.5" height="97.54" rx="7.5" fill="white"/>
<rect x="1" y="0.5" width="157.5" height="97.54" rx="7.5" stroke="#E2E5F1"/>
<g clip-path="url(#clip0_20005128_14633)">
<g clip-path="url(#clip1_20005128_14633)">
<path d="M36.1992 47.8061C35.8332 48.1721 35.5587 48.5381 35.3757 48.9956C35.1927 49.453 35.1927 49.9105 35.1927 50.4595C35.2842 51.0084 35.1927 51.6489 35.0097 52.1978C34.8268 52.7468 34.4608 53.2043 34.0948 53.6617C33.7288 54.0277 33.1799 54.3937 32.6309 54.5767C32.082 54.7597 31.533 54.8511 30.8925 54.7597C30.1606 54.6682 29.5201 54.8511 28.8797 55.2171C28.2392 55.5831 27.7818 56.0406 27.5073 56.681C27.2378 57.3154 27.143 58.0104 27.2328 58.6939C27.3243 59.3343 27.6903 59.9748 28.1477 60.5237C28.6052 60.9812 29.2457 61.3472 29.9776 61.4387C30.661 61.5285 31.356 61.4337 31.9905 61.1642C32.6309 60.8897 33.1799 60.4323 33.4544 59.7918C33.7288 59.1513 33.9118 58.5109 33.9118 57.7789C33.8203 57.23 33.9118 56.5895 34.0948 56.0406C34.2778 55.4916 34.6438 55.0341 35.0097 54.5767C35.3757 54.2107 35.9247 53.8447 36.4736 53.6617C37.0226 53.4787 37.5716 53.3873 38.212 53.4787C38.761 53.5702 39.3099 53.4787 39.8589 53.2043C40.4079 53.0213 40.8653 52.6553 41.1398 52.1978C41.5058 51.7404 41.6888 51.1914 41.7803 50.6424C41.8718 50.0935 41.7803 49.5445 41.5973 48.9956C41.4143 48.4466 41.0483 47.9891 40.6823 47.6232C40.2249 47.2572 39.7674 46.9827 39.2184 46.8912C38.6695 46.7997 38.1205 46.7997 37.5716 46.9827C37.1141 47.0742 36.6566 47.3487 36.1992 47.8061ZM29.4286 52.5638C29.8861 52.5638 30.4351 52.5638 30.8925 52.3808C31.35 52.1978 31.8075 51.9234 32.082 51.5574C32.4479 51.1914 32.7224 50.8254 32.9054 50.368C33.0884 49.9105 33.0884 49.453 33.0884 48.9041C32.9969 48.3551 33.0884 47.7147 33.2714 47.1657C33.4544 46.6167 33.8203 46.1593 34.1863 45.7018C34.5523 45.3358 35.1012 44.9698 35.6502 44.7869C36.1992 44.6039 36.7481 44.5124 37.3886 44.6039C38.1205 44.6954 38.761 44.5124 39.4014 44.1464C40.0419 43.7804 40.4994 43.323 40.7738 42.6825C41.0434 42.0481 41.1381 41.3531 41.0483 40.6697C40.9568 40.0292 40.5909 39.3887 40.1334 38.8398C39.6759 38.3823 39.0355 38.0163 38.3035 37.9248C37.6201 37.835 36.9251 37.9298 36.2907 38.1993C35.6502 38.4738 35.1012 38.9313 34.8268 39.5717C34.4608 40.2122 34.3693 40.8526 34.3693 41.5846C34.4608 42.1335 34.3693 42.774 34.1863 43.323C34.0033 43.8719 33.6373 44.3294 33.2714 44.7869C32.9054 45.1528 32.3564 45.5188 31.8075 45.7018C31.2585 45.8848 30.7096 45.9763 30.0691 45.8848C29.6116 45.7933 29.0627 45.8848 28.6052 46.0678C28.1477 46.2508 27.6903 46.5252 27.4158 46.8912C27.0498 47.2572 26.7753 47.6232 26.5923 48.0806C26.4094 48.5381 26.4094 48.9956 26.4094 49.5445C26.5009 50.0935 26.4094 50.7339 26.2264 51.2829C26.0434 51.8319 25.6774 52.2893 25.3114 52.7468C24.9455 53.1128 24.3965 53.4787 23.8475 53.6617C23.2986 53.7532 22.6581 53.8447 22.1092 53.8447C21.3772 53.7532 20.7368 53.9362 20.0963 54.3022C19.4559 54.6682 18.9984 55.1256 18.7239 55.7661C18.4544 56.4005 18.3596 57.0955 18.4494 57.7789C18.5409 58.4194 18.9069 59.0598 19.3644 59.6088C19.8218 60.0663 20.4623 60.4323 21.1942 60.5237C21.8777 60.6136 22.5727 60.5188 23.2071 60.2493C23.8475 59.9748 24.3965 59.5173 24.671 58.8769C25.037 58.2364 25.1284 57.596 25.1284 56.864C25.037 56.315 25.1284 55.6746 25.3114 55.1256C25.4944 54.5767 25.8604 54.1192 26.2264 53.6617C26.5923 53.2958 27.1413 52.9298 27.6903 52.7468L29.4286 52.5638ZM23.2986 50.7339C23.6646 50.368 23.939 50.002 24.0305 49.5445C24.122 49.0871 24.2135 48.6296 24.2135 48.0806C24.122 47.5317 24.2135 46.8912 24.3965 46.3422C24.5795 45.7933 24.9455 45.3358 25.3114 44.8784C25.6774 44.5124 26.2264 44.1464 26.7753 43.9634C27.3243 43.7804 27.8733 43.6889 28.5137 43.7804C29.2457 43.8719 29.8861 43.6889 30.5266 43.323C31.167 42.957 31.6245 42.4995 31.899 41.8591C32.1685 41.2246 32.2633 40.5296 32.1734 39.8462C32.082 39.2058 31.716 38.5653 31.2585 38.0163C30.801 37.5589 30.1606 37.1929 29.4286 37.1014C28.7452 37.0116 28.0502 37.1064 27.4158 37.3759C26.7753 37.6504 26.2264 38.1078 25.9519 38.7483C25.5859 39.3887 25.4944 40.0292 25.4944 40.7611C25.5859 41.3101 25.4944 41.9506 25.3114 42.4995C25.1284 43.0485 24.7625 43.506 24.3965 43.9634C24.0305 44.3294 23.4816 44.6954 22.9326 44.8784C22.3836 45.0613 21.8347 45.1528 21.1942 45.0613C20.6453 44.9698 20.0963 45.0613 19.5473 45.3358C18.9984 45.5188 18.5409 45.8848 18.2664 46.3422C17.9005 46.7997 17.7175 47.3487 17.626 47.8976C17.5345 48.4466 17.626 48.9956 17.809 49.5445C17.992 50.0935 18.3579 50.551 18.7239 50.9169C19.1814 51.2829 19.6388 51.5574 20.1878 51.6489C20.7368 51.7404 21.2857 51.7404 21.8347 51.5574C22.4751 51.4659 22.9326 51.1914 23.2986 50.7339ZM51.6616 41.6761H54.4064V54.9426H51.6616V41.6761ZM55.9618 50.368C55.9618 49.453 56.2362 48.4466 56.7852 47.7147C57.3342 46.8912 58.0661 46.3422 58.981 45.9763C59.896 45.6103 60.8109 45.5188 61.7259 45.7018C62.6408 45.8848 63.5557 46.3422 64.1962 46.9827C64.8366 47.6232 65.2941 48.5381 65.4771 49.453C65.6601 50.368 65.5686 51.3744 65.2026 52.1978C64.8366 53.1128 64.1962 53.8447 63.4642 54.3937C62.6812 54.9255 61.7575 55.2122 60.8109 55.2171C60.1705 55.2171 59.53 55.1256 58.981 54.8511C58.4321 54.5767 57.8831 54.3022 57.4257 53.8447C56.9682 53.3873 56.6022 52.8383 56.4192 52.2893C56.1148 51.6948 55.9579 51.0358 55.9618 50.368ZM62.8238 50.368C62.8238 50.002 62.6408 49.5445 62.4578 49.27C62.1833 48.9041 61.9088 48.7211 61.5429 48.5381C61.1769 48.3551 60.7194 48.3551 60.3534 48.4466C59.9875 48.5381 59.6215 48.7211 59.347 48.9956C59.0725 49.27 58.8896 49.636 58.7981 50.0935C58.7066 50.4595 58.7981 50.9169 58.8896 51.2829C59.0725 51.6489 59.347 52.0148 59.6215 52.1978C59.9875 52.3808 60.3534 52.5638 60.8109 52.5638C61.0854 52.5638 61.3599 52.5638 61.6344 52.3808C61.9088 52.2893 62.0918 52.1063 62.3663 51.9234C62.5493 51.7404 62.7323 51.4659 62.8238 51.1914V50.368ZM76.3648 45.7933V54.3937C76.3648 57.413 73.986 58.6939 71.6072 58.6939C70.7837 58.7854 69.8688 58.6024 69.1368 58.2364C68.4049 57.8704 67.7644 57.23 67.307 56.498L69.5943 55.1256C69.7773 55.4916 70.0518 55.8576 70.4177 56.0406C70.7894 56.2179 71.1954 56.3116 71.6072 56.315C71.8816 56.315 72.1561 56.315 72.4306 56.2235C72.7051 56.1321 72.8881 56.0406 73.1625 55.8576C73.3446 55.6669 73.4986 55.4512 73.62 55.2171C73.7115 54.9426 73.7115 54.6682 73.7115 54.3937V53.5702C73.3998 53.9719 72.9903 54.2869 72.5221 54.4852C72.0646 54.6682 71.6072 54.7597 71.0582 54.7597C69.8688 54.7597 68.7709 54.2107 67.8559 53.3873C67.0325 52.5638 66.575 51.3744 66.575 50.185C66.575 48.9956 67.0325 47.8061 67.8559 46.9827C68.6794 46.1593 69.7773 45.6103 71.0582 45.6103C71.5587 45.6126 72.0547 45.7056 72.5221 45.8848C72.9796 46.0678 73.3455 46.4337 73.7115 46.7997V45.8848L76.3648 45.7933ZM73.7115 50.185C73.7115 49.7275 73.62 49.27 73.3455 48.9041C73.071 48.5381 72.7966 48.2636 72.3391 48.0806C71.9439 47.8803 71.4937 47.816 71.0582 47.8976C70.6007 47.9891 70.2347 48.1721 69.8688 48.4466C69.5943 48.7211 69.3198 49.1785 69.2283 49.5445C69.1368 50.002 69.1368 50.4595 69.3198 50.8254C69.5028 51.1914 69.7773 51.5574 70.1433 51.8319C70.5092 52.1063 70.9667 52.1978 71.3327 52.1978C71.6072 52.1978 71.8816 52.1978 72.1561 52.1063C72.4306 52.0148 72.7051 51.8319 72.8881 51.6489C73.071 51.4659 73.254 51.1914 73.3455 50.9169C73.7115 50.7339 73.7115 50.4595 73.7115 50.185ZM77.9202 50.368C77.9202 49.453 78.1947 48.4466 78.7436 47.7147C79.2926 46.8912 80.0246 46.3422 80.9395 45.9763C81.8544 45.6103 82.7694 45.5188 83.6843 45.7018C84.5992 45.8848 85.5142 46.3422 86.1546 46.9827C86.7951 47.6232 87.2525 48.5381 87.4355 49.453C87.6185 50.368 87.527 51.3744 87.161 52.1978C86.7951 53.1128 86.1546 53.8447 85.4227 54.3937C84.6396 54.9255 83.7159 55.2122 82.7694 55.2171C82.1289 55.2171 81.4885 55.1256 80.9395 54.8511C80.3905 54.5767 79.8416 54.3022 79.3841 53.8447C78.9266 53.3873 78.5607 52.8383 78.3777 52.2893C78.0733 51.6948 77.9164 51.0358 77.9202 50.368ZM84.7822 50.368C84.7822 50.002 84.5992 49.5445 84.4162 49.27C84.1418 48.9041 83.8673 48.7211 83.5013 48.5381C83.1353 48.3551 82.6779 48.3551 82.3119 48.4466C81.9459 48.5381 81.5799 48.7211 81.214 48.9956C80.9395 49.27 80.7565 49.636 80.665 50.0935C80.5735 50.4595 80.665 50.9169 80.7565 51.2829C80.848 51.6489 81.214 52.0148 81.4884 52.1978C81.8544 52.3808 82.2204 52.5638 82.6779 52.5638C82.9523 52.5638 83.2268 52.5638 83.5013 52.3808C83.7758 52.2893 83.9588 52.1063 84.2333 51.9234C84.4162 51.7404 84.5992 51.4659 84.6907 51.1914C84.7822 50.9169 84.7822 50.6424 84.7822 50.368ZM88.8079 43.4145C88.8006 43.0882 88.8966 42.7679 89.0824 42.4995C89.2654 42.225 89.5399 42.0421 89.8144 41.8591C90.0888 41.7676 90.4548 41.6761 90.7293 41.7676C91.0038 41.8591 91.3698 41.9506 91.5527 42.225C91.7357 42.408 91.9187 42.774 92.0102 43.0485C92.1017 43.323 92.0102 43.6889 91.9187 43.9634C91.8272 44.2379 91.5527 44.5124 91.2783 44.6954C91.0099 44.8811 90.6896 44.9772 90.3633 44.9698C89.9059 44.9698 89.5399 44.7869 89.1739 44.5124C88.9909 44.2379 88.8079 43.7804 88.8079 43.4145ZM89.0824 45.7933H91.8272V54.8511H89.0824V45.7933ZM103.538 50.368C103.538 51.0084 103.447 51.5574 103.264 52.1063C103.081 52.6553 102.715 53.2043 102.349 53.6617C101.983 54.1192 101.434 54.4852 100.885 54.7597C100.336 55.0341 99.7871 55.1256 99.1467 55.2171C98.5977 55.2171 98.1403 55.1256 97.6828 54.9426C97.2253 54.7597 96.7679 54.4852 96.4934 54.1192V58.6024H93.7486V45.7933H96.4934V46.6167C96.8594 46.2508 97.2253 45.9763 97.6828 45.7933C98.1502 45.6141 98.6462 45.5212 99.1467 45.5188C99.7871 45.5188 100.336 45.7018 100.885 45.9763C101.434 46.2508 101.891 46.6167 102.349 47.0742C102.715 47.5317 103.081 48.0806 103.264 48.6296C103.447 49.1785 103.538 49.7275 103.538 50.368ZM100.794 50.368C100.794 49.9105 100.611 49.5445 100.428 49.1785C100.153 48.8126 99.8786 48.5381 99.4212 48.4466C99.0552 48.2636 98.5977 48.2636 98.1403 48.3551C97.6828 48.4466 97.3168 48.6296 97.0423 48.9956C96.7679 49.27 96.5849 49.7275 96.4934 50.0935C96.4019 50.551 96.4934 50.9169 96.5849 51.3744C96.7679 51.7404 97.0424 52.1063 97.4083 52.2893C97.7743 52.5638 98.1403 52.6553 98.5977 52.6553C98.8722 52.6553 99.1467 52.6553 99.4212 52.4723C99.6957 52.3808 99.9701 52.1978 100.153 52.0148C100.336 51.8319 100.519 51.5574 100.611 51.2829C100.794 50.9169 100.794 50.6424 100.794 50.368ZM111.864 52.1063C111.864 54.2107 110.034 55.0341 108.113 55.0341C107.29 55.1256 106.558 54.9426 105.826 54.5767C105.094 54.2107 104.545 53.5702 104.179 52.9298L106.558 51.5574C106.649 51.9234 106.832 52.1978 107.107 52.3808C107.381 52.5546 107.697 52.6496 108.022 52.6553C108.662 52.6553 109.028 52.4723 109.028 52.1063C109.028 51.0999 104.545 51.6489 104.545 48.5381C104.545 46.5252 106.192 45.6103 108.113 45.6103C108.845 45.6103 109.485 45.7933 110.126 46.0678C110.742 46.4088 111.249 46.916 111.59 47.5317L109.302 48.8126C109.211 48.5381 109.028 48.3551 108.845 48.2636C108.662 48.1721 108.388 48.0806 108.113 48.0806C107.656 48.0806 107.381 48.2636 107.381 48.6296C107.473 49.453 111.864 48.8126 111.864 52.1063ZM121.837 45.7933V54.8511H119.092V54.0277C118.818 54.3937 118.36 54.6682 117.903 54.8511C117.445 55.0341 116.988 55.1256 116.439 55.1256C114.609 55.1256 113.054 53.8447 113.054 51.3744V45.7933H115.799V50.9169C115.799 51.0999 115.799 51.3744 115.89 51.5574C115.981 51.7404 116.073 51.9234 116.256 52.1063C116.439 52.2893 116.622 52.3808 116.805 52.4723C116.988 52.5638 117.262 52.5638 117.445 52.5638C118.452 52.5638 119.092 52.0148 119.092 50.7339V45.7933H121.837ZM137.391 49.27V54.8511H134.646V49.5445C134.646 48.6296 134.189 48.0806 133.365 48.0806C132.45 48.0806 131.993 48.7211 131.993 49.819V54.9426H129.248V49.636C129.248 48.7211 128.791 48.1721 127.967 48.1721C127.052 48.1721 126.595 48.8126 126.595 49.9105V55.0341H123.85V45.9763H126.595V46.7997C126.877 46.4281 127.257 46.1429 127.693 45.9763C128.15 45.7933 128.608 45.7018 129.065 45.7018C129.523 45.7018 129.98 45.7933 130.437 45.9763C130.895 46.1593 131.169 46.5252 131.444 46.8912C131.756 46.4896 132.165 46.1746 132.633 45.9763C133.101 45.7971 133.597 45.7041 134.097 45.7018C136.019 45.5188 137.391 47.0742 137.391 49.27ZM139.678 45.7018C140.211 45.697 140.72 45.4834 141.096 45.107C141.473 44.7305 141.686 44.2213 141.691 43.6889C141.686 43.1566 141.473 42.6474 141.096 42.2709C140.72 41.8945 140.211 41.6809 139.678 41.6761C139.146 41.6809 138.637 41.8945 138.26 42.2709C137.884 42.6474 137.67 43.1566 137.665 43.6889C137.665 44.8784 138.58 45.7018 139.678 45.7018Z" fill="#B4B7C9"/>
</g>
</g>
<defs>
<clipPath id="clip0_20005128_14633">
<rect width="140.9" height="32.94" fill="white" transform="translate(9.30005 32.8)"/>
</clipPath>
<clipPath id="clip1_20005128_14633">
<rect width="140.9" height="32.94" fill="white" transform="translate(9.30005 32.8)"/>
</clipPath>
</defs>
</svg>
