<svg width="159" height="99" viewBox="0 0 159 99" fill="none" xmlns="http://www.w3.org/2000/svg">
<rect x="0.5" y="0.5" width="157.5" height="97.54" rx="7.5" fill="white"/>
<rect x="0.5" y="0.5" width="157.5" height="97.54" rx="7.5" stroke="#E2E5F1"/>
<g clip-path="url(#clip0_20005128_14638)">
<g clip-path="url(#clip1_20005128_14638)">
<path d="M78.9756 55.1257H74.3094V42.5911H78.9756V55.1257ZM74.7669 54.6683H78.5181V43.0486H74.7669V54.6683ZM85.4716 55.1257H80.8969V42.5911H90.5038C91.8762 42.4996 93.2486 42.8656 94.3465 43.689C94.7928 44.1459 95.1634 44.6709 95.4444 45.2444C95.7189 45.8849 95.8104 46.5253 95.7189 47.1658C95.8104 48.2637 95.4444 49.3616 94.7125 50.2766C93.889 51.283 92.5166 51.7405 90.5953 51.7405H85.5631L85.4716 55.1257ZM81.3544 54.6683H85.0142V51.283H85.2886H90.5953C92.3336 51.283 93.706 50.8255 94.438 50.0021C95.0784 49.1787 95.3529 48.2637 95.3529 47.2573C95.4444 46.7083 95.3529 46.0679 95.1699 45.5189C94.9869 44.97 94.621 44.5125 94.1635 44.055C93.1571 43.3231 91.8762 42.9571 90.5953 43.0486H81.4459L81.3544 54.6683ZM89.4973 48.9042H85.0142V45.5189H89.5888C89.9548 45.5189 90.2293 45.5189 90.5038 45.6104C90.7782 45.7019 91.0527 45.8849 91.3272 46.1594C91.5102 46.4339 91.6017 46.7998 91.6017 47.2573C91.6017 47.6233 91.5102 47.8977 91.4187 48.2637C91.2357 48.5382 90.9612 48.7212 90.5953 48.8127C90.2293 48.9042 89.8633 48.9957 89.4973 48.9042ZM85.4716 48.4467H89.4973C90.2293 48.4467 90.6868 48.2637 90.9612 47.9892C91.0527 47.7148 91.1442 47.5318 91.1442 47.2573C91.1442 46.9828 91.1442 46.7083 90.9612 46.4339C90.7782 46.0679 90.3208 45.9764 89.5888 45.9764H85.4716V48.4467ZM104.045 55.3087C99.9276 55.3087 97.4573 54.3023 96.5423 52.1979C96.3593 51.832 96.2678 51.3745 96.2678 50.917V50.6426H101.117V50.8255C101.117 51.0085 101.208 51.1915 101.391 51.3745C101.574 51.649 102.215 52.015 104.411 52.015C106.973 52.015 106.973 51.5575 106.973 51.283C106.973 50.917 106.698 50.734 104.594 50.5511H104.228L101.94 50.3681C98.0977 50.0021 96.3593 48.8127 96.3593 46.5253C96.3593 44.055 99.2871 42.4996 103.77 42.4996C107.43 42.4996 109.809 43.5061 110.815 45.4274C111.09 45.8849 111.181 46.3424 111.273 46.8913V47.1658H106.424V46.9828C106.424 46.7998 106.332 46.7083 106.241 46.5253C106.058 46.2509 105.509 45.8849 103.679 45.8849C101.483 45.8849 101.208 46.1594 101.208 46.4339C101.208 46.7998 101.94 46.9828 104.136 47.2573L107.064 47.5318C110.266 47.8978 111.73 49.0872 111.73 51.283C111.639 53.0214 110.358 55.3087 104.045 55.3087ZM96.7253 51.1C96.8168 51.3745 96.8168 51.7405 96.9998 52.015C97.8232 53.9363 100.202 54.8513 104.045 54.8513C107.339 54.8513 111.181 54.2108 111.181 51.1C111.181 49.0872 109.9 48.0807 106.973 47.8063C106.424 47.7148 104.96 47.6233 104.045 47.5318C101.666 47.2573 100.66 47.1658 100.66 46.2509C100.66 45.3359 101.666 45.2444 103.587 45.2444C105.143 45.2444 106.058 45.5189 106.515 46.0679C106.607 46.1594 106.698 46.3424 106.79 46.5253H110.724C110.632 46.1594 110.541 45.7934 110.358 45.5189C109.443 43.7805 107.247 42.8656 103.679 42.8656C99.4701 42.8656 96.7253 44.238 96.7253 46.4339C96.7253 48.5382 98.2807 49.5446 101.849 49.8191C102.306 49.8191 103.313 49.9106 104.136 50.0021H104.502C106.424 50.1851 107.339 50.3681 107.339 51.1915C107.339 52.1979 106.241 52.3809 104.319 52.3809C102.581 52.3809 101.391 52.1065 101.026 51.5575C100.934 51.3745 100.751 51.1915 100.751 51.0085H96.7253V51.1ZM120.331 55.3087C115.573 55.3087 112.92 53.3874 112.92 49.9106V42.6826H117.586V49.9106C117.586 51.1 118.684 51.832 120.514 51.832C122.343 51.832 123.441 51.1 123.441 49.9106V42.6826H128.016V50.1851C128.016 53.3874 125.18 55.3087 120.331 55.3087ZM113.377 43.0486V49.8191C113.377 54.1193 117.769 54.7598 120.331 54.7598C122.984 54.7598 127.559 54.1193 127.559 50.1851V43.0486H123.899V49.8191C123.899 51.1915 122.618 52.1979 120.514 52.1979C118.409 52.1979 117.128 51.283 117.128 49.8191V43.0486H113.377ZM147.413 55.1257H143.021V49.4531L140.551 55.1257H136.708L134.238 49.4531V55.1257H129.846V42.5911H135.61L138.629 49.4531L141.74 42.5911H147.321L147.413 55.1257ZM143.479 54.6683H146.955V43.0486H142.106L138.629 50.6426L135.336 43.0486H130.303V54.6683H133.78V47.2573L136.982 54.6683H140.185L143.387 47.2573L143.479 54.6683ZM15.2961 42.7741H11.0874V54.8513H22.6156V51.649H15.2961V42.7741ZM31.033 42.4996C25.7264 42.4996 22.8901 45.0615 22.8901 48.7212C22.8901 52.9299 25.8179 55.0342 31.033 55.0342C36.7056 55.0342 39.1759 52.5639 39.1759 48.7212C39.0844 44.8785 36.4311 42.4996 31.033 42.4996ZM31.033 45.7019C31.399 45.7019 31.7649 45.7019 32.1309 45.7934L27.4647 50.4596C27.2818 50.0021 27.0988 49.4531 27.1903 48.9042C27.0988 46.8913 28.0137 45.7019 31.033 45.7019ZM31.033 52.015C30.667 52.015 30.301 52.015 30.0266 51.9235L34.6927 47.2573C34.8757 47.7148 34.9672 48.2637 34.9672 48.8127C34.9672 50.6426 34.0523 51.9235 31.033 52.015ZM47.4103 50.3681H51.7105C51.619 50.6426 51.5275 50.917 51.3445 51.1915C50.4296 51.9235 49.3317 52.2894 48.1423 52.1979C47.5933 52.2894 46.9529 52.1979 46.4039 52.015C45.8549 51.832 45.3975 51.5575 44.94 51.1C44.4825 50.4596 44.2995 49.7276 44.391 48.9042C44.2995 48.0807 44.574 47.2573 45.0315 46.6168C45.6719 45.9764 46.6784 45.6104 48.1423 45.6104C49.0572 45.5189 50.0636 45.7934 50.7956 46.3424C51.0701 46.5253 51.253 46.7998 51.3445 47.0743H55.2788C55.2788 46.6168 55.0958 46.0679 54.9128 45.6104C53.9979 43.689 51.7105 42.4996 47.9593 42.4996C44.6655 42.4996 42.4697 43.5061 41.2803 44.97C40.4568 46.0679 40.0908 47.3488 40.0908 48.7212C39.9993 50.0936 40.4568 51.466 41.1888 52.5639C42.3782 54.1193 44.4825 54.8513 47.1358 54.8513C48.8742 54.9428 50.5211 54.4853 51.8935 53.4789L51.985 54.6683H55.2788V47.5318H47.2273V50.3681H47.4103ZM64.7941 42.4996C59.4875 42.4996 56.6512 45.0615 56.6512 48.7212C56.6512 52.9299 59.579 55.0342 64.7941 55.0342C70.4667 55.0342 72.937 52.5639 72.937 48.7212C72.8455 44.8785 70.1922 42.4996 64.7941 42.4996ZM64.7941 45.7019C65.1601 45.7019 65.526 45.7019 65.892 45.7934L61.2258 50.4596C61.0429 50.0021 60.9514 49.4531 60.9514 48.9042C60.8599 46.8913 61.7748 45.7019 64.7941 45.7019ZM64.7941 51.9235C64.4281 51.9235 64.0621 51.9235 63.6962 51.832L68.3623 47.1658C68.5453 47.6233 68.7283 48.1722 68.6368 48.7212C68.7283 50.6426 67.8134 51.9235 64.7941 51.9235Z" fill="#B4B7C9"/>
</g>
</g>
<defs>
<clipPath id="clip0_20005128_14638">
<rect width="140.9" height="32.94" fill="white" transform="translate(8.80005 32.8)"/>
</clipPath>
<clipPath id="clip1_20005128_14638">
<rect width="140.9" height="32.94" fill="white" transform="translate(8.80005 32.8)"/>
</clipPath>
</defs>
</svg>
