<svg width="155" height="118" viewBox="0 0 155 118" fill="none" xmlns="http://www.w3.org/2000/svg">
<g clip-path="url(#clip0_18_164)">
<path d="M28.2871 18.5226C27.3724 17.6194 26.2304 17.6194 25.3214 18.5226C24.6281 19.2101 23.9347 19.8976 23.253 20.5968C23.0666 20.7891 22.9092 20.8299 22.682 20.7017C22.2334 20.457 21.7556 20.2589 21.3244 19.9908C19.3143 18.7265 17.6304 17.1009 16.1388 15.2714C15.3988 14.3624 14.7404 13.3894 14.2802 12.294C14.1869 12.0726 14.2044 11.9269 14.385 11.7463C15.0784 11.0763 15.7543 10.3887 16.436 9.70119C17.3857 8.74564 17.3857 7.62695 16.4301 6.66557C15.8883 6.11788 15.3464 5.58183 14.8045 5.03414C14.2452 4.47479 13.6917 3.90962 13.1265 3.3561C12.2117 2.46464 11.0697 2.46464 10.1608 3.36193C9.46161 4.04946 8.79156 4.75447 8.08072 5.43034C7.42232 6.05378 7.09021 6.81706 7.02029 7.70852C6.90959 9.15932 7.26501 10.5286 7.76609 11.8628C8.79156 14.6246 10.3531 17.0776 12.2467 19.3266C14.8045 22.3681 17.8576 24.7744 21.4293 26.5107C23.0374 27.2915 24.7038 27.8916 26.5159 27.9907C27.7627 28.0606 28.8465 27.746 29.7146 26.7729C30.3089 26.1087 30.979 25.5027 31.6083 24.8676C32.5405 23.9237 32.5463 22.7818 31.6199 21.8495C30.5129 20.7366 29.4 19.6296 28.2871 18.5226Z" fill="#6366F1"/>
<path d="M27.1744 13.8788L29.3243 13.5118C28.9864 11.5366 28.0542 9.74782 26.6383 8.32615C25.1409 6.82873 23.2473 5.88483 21.1614 5.59351L20.8584 7.75515C22.4723 7.98238 23.9406 8.7107 25.1001 9.87018C26.1955 10.9656 26.9122 12.3523 27.1744 13.8788Z" fill="#6366F1"/>
<path d="M30.5359 4.53304C28.0538 2.05094 24.9133 0.483602 21.4465 0L21.1436 2.16164C24.1384 2.58115 26.8536 3.93874 28.9977 6.07707C31.0312 8.11053 32.3655 10.68 32.8491 13.5059L34.999 13.1388C34.4339 9.86432 32.8898 6.89279 30.5359 4.53304Z" fill="#6366F1"/>
</g>
<path d="M11.48 60.21C10.7753 60.21 10.1407 60.0933 9.576 59.86C9.016 59.622 8.55167 59.286 8.183 58.852C7.819 58.418 7.581 57.9023 7.469 57.305L8.519 57.13C8.687 57.7833 9.04167 58.2967 9.583 58.67C10.1243 59.0387 10.7707 59.223 11.522 59.223C12.0167 59.223 12.46 59.146 12.852 58.992C13.244 58.8333 13.552 58.6093 13.776 58.32C14 58.0307 14.112 57.6877 14.112 57.291C14.112 57.0297 14.0653 56.808 13.972 56.626C13.8787 56.4393 13.755 56.2853 13.601 56.164C13.447 56.0427 13.279 55.9423 13.097 55.863C12.915 55.779 12.7377 55.7113 12.565 55.66L10.01 54.897C9.702 54.8083 9.41733 54.6963 9.156 54.561C8.89467 54.421 8.666 54.2553 8.47 54.064C8.27867 53.868 8.12933 53.6393 8.022 53.378C7.91467 53.1167 7.861 52.818 7.861 52.482C7.861 51.9127 8.01033 51.4203 8.309 51.005C8.60767 50.5897 9.016 50.27 9.534 50.046C10.052 49.822 10.6423 49.7123 11.305 49.717C11.977 49.717 12.5767 49.836 13.104 50.074C13.636 50.312 14.0747 50.6527 14.42 51.096C14.7653 51.5347 14.994 52.055 15.106 52.657L14.028 52.853C13.958 52.4143 13.797 52.034 13.545 51.712C13.293 51.39 12.971 51.1427 12.579 50.97C12.1917 50.7927 11.7647 50.7017 11.298 50.697C10.8453 50.697 10.4417 50.774 10.087 50.928C9.737 51.0773 9.45933 51.2827 9.254 51.544C9.04867 51.8053 8.946 52.104 8.946 52.44C8.946 52.7807 9.03933 53.0537 9.226 53.259C9.41733 53.4643 9.65067 53.6253 9.926 53.742C10.206 53.8587 10.4767 53.9543 10.738 54.029L12.712 54.61C12.9173 54.666 13.1577 54.7477 13.433 54.855C13.713 54.9577 13.9837 55.107 14.245 55.303C14.511 55.4943 14.7303 55.7463 14.903 56.059C15.0757 56.3717 15.162 56.7683 15.162 57.249C15.162 57.7157 15.0687 58.1333 14.882 58.502C14.7 58.8707 14.441 59.181 14.105 59.433C13.7737 59.685 13.384 59.8763 12.936 60.007C12.4927 60.1423 12.0073 60.21 11.48 60.21ZM20.723 60C20.2983 60.0887 19.8783 60.1237 19.463 60.105C19.0523 60.0863 18.6836 59.9977 18.357 59.839C18.035 59.6803 17.79 59.433 17.622 59.097C17.4866 58.817 17.412 58.5347 17.398 58.25C17.3886 57.9607 17.384 57.6317 17.384 57.263V50.34H18.406V57.221C18.406 57.5383 18.4083 57.8043 18.413 58.019C18.4223 58.229 18.4713 58.4157 18.56 58.579C18.728 58.8917 18.994 59.0783 19.358 59.139C19.7266 59.1997 20.1816 59.1857 20.723 59.097V60ZM15.767 53.322V52.44H20.723V53.322H15.767ZM22.3524 51.005V49.85H23.3814V51.005H22.3524ZM22.3524 60V52.44H23.3814V60H22.3524ZM25.62 60V49.71H26.649V60H25.62ZM28.8876 60V49.71H29.9166V60H28.8876ZM40.2779 60V56.143C40.2779 55.723 40.2382 55.338 40.1589 54.988C40.0796 54.6333 39.9512 54.3253 39.7739 54.064C39.6012 53.798 39.3749 53.5927 39.0949 53.448C38.8196 53.3033 38.4836 53.231 38.0869 53.231C37.7229 53.231 37.4009 53.294 37.1209 53.42C36.8456 53.546 36.6122 53.728 36.4209 53.966C36.2342 54.1993 36.0919 54.484 35.9939 54.82C35.8959 55.156 35.8469 55.5387 35.8469 55.968L35.1189 55.807C35.1189 55.0323 35.2542 54.3813 35.5249 53.854C35.7956 53.3267 36.1689 52.9277 36.6449 52.657C37.1209 52.3863 37.6669 52.251 38.2829 52.251C38.7356 52.251 39.1299 52.321 39.4659 52.461C39.8066 52.601 40.0936 52.79 40.3269 53.028C40.5649 53.266 40.7562 53.539 40.9009 53.847C41.0456 54.1503 41.1506 54.4747 41.2159 54.82C41.2812 55.1607 41.3139 55.5013 41.3139 55.842V60H40.2779ZM34.8109 60V49.92H35.7419V55.611H35.8469V60H34.8109ZM45.2934 60.21C44.7241 60.21 44.2457 60.1073 43.8584 59.902C43.4757 59.6967 43.1887 59.4237 42.9974 59.083C42.8061 58.7423 42.7104 58.3713 42.7104 57.97C42.7104 57.5593 42.7921 57.2093 42.9554 56.92C43.1234 56.626 43.3497 56.3857 43.6344 56.199C43.9237 56.0123 44.2574 55.87 44.6354 55.772C45.0181 55.6787 45.4404 55.597 45.9024 55.527C46.3691 55.4523 46.8241 55.3893 47.2674 55.338C47.7154 55.282 48.1074 55.2283 48.4434 55.177L48.0794 55.401C48.0934 54.6543 47.9487 54.1013 47.6454 53.742C47.3421 53.3827 46.8147 53.203 46.0634 53.203C45.5454 53.203 45.1067 53.3197 44.7474 53.553C44.3927 53.7863 44.1431 54.155 43.9984 54.659L42.9974 54.365C43.1701 53.6883 43.5177 53.1633 44.0404 52.79C44.5631 52.4167 45.2421 52.23 46.0774 52.23C46.7681 52.23 47.3537 52.3607 47.8344 52.622C48.3197 52.8787 48.6627 53.252 48.8634 53.742C48.9567 53.9613 49.0174 54.2063 49.0454 54.477C49.0734 54.7477 49.0874 55.023 49.0874 55.303V60H48.1704V58.103L48.4364 58.215C48.1797 58.8637 47.7807 59.3583 47.2394 59.699C46.6981 60.0397 46.0494 60.21 45.2934 60.21ZM45.4124 59.321C45.8931 59.321 46.3131 59.2347 46.6724 59.062C47.0317 58.8893 47.3211 58.6537 47.5404 58.355C47.7597 58.0517 47.9021 57.711 47.9674 57.333C48.0234 57.0903 48.0537 56.8243 48.0584 56.535C48.0631 56.241 48.0654 56.0217 48.0654 55.877L48.4574 56.08C48.1074 56.1267 47.7271 56.1733 47.3164 56.22C46.9104 56.2667 46.5091 56.3203 46.1124 56.381C45.7204 56.4417 45.3657 56.514 45.0484 56.598C44.8337 56.6587 44.6261 56.745 44.4254 56.857C44.2247 56.9643 44.0591 57.109 43.9284 57.291C43.8024 57.473 43.7394 57.6993 43.7394 57.97C43.7394 58.1893 43.7931 58.4017 43.9004 58.607C44.0124 58.8123 44.1897 58.9827 44.4324 59.118C44.6797 59.2533 45.0064 59.321 45.4124 59.321ZM52.6803 60L49.9363 52.44H50.9793L53.2123 58.656L55.4313 52.44H56.4883L53.7443 60H52.6803ZM60.6712 60.21C59.9339 60.21 59.2945 60.0467 58.7532 59.72C58.2165 59.3933 57.7989 58.9337 57.5002 58.341C57.2015 57.7483 57.0522 57.053 57.0522 56.255C57.0522 55.429 57.1992 54.715 57.4932 54.113C57.7872 53.511 58.2002 53.0467 58.7322 52.72C59.2689 52.3933 59.9012 52.23 60.6292 52.23C61.3759 52.23 62.0129 52.4027 62.5402 52.748C63.0675 53.0887 63.4665 53.5787 63.7372 54.218C64.0079 54.8573 64.1315 55.6203 64.1082 56.507H63.0582V56.143C63.0395 55.163 62.8272 54.4233 62.4212 53.924C62.0199 53.4247 61.4319 53.175 60.6572 53.175C59.8452 53.175 59.2222 53.4387 58.7882 53.966C58.3589 54.4933 58.1442 55.2447 58.1442 56.22C58.1442 57.172 58.3589 57.9117 58.7882 58.439C59.2222 58.9617 59.8359 59.223 60.6292 59.223C61.1705 59.223 61.6419 59.0993 62.0432 58.852C62.4492 58.6 62.7689 58.2383 63.0022 57.767L63.9612 58.138C63.6625 58.796 63.2215 59.307 62.6382 59.671C62.0595 60.0303 61.4039 60.21 60.6712 60.21ZM57.7802 56.507V55.646H63.5552V56.507H57.7802ZM74.2001 60.21C73.4954 60.21 72.8934 60.035 72.3941 59.685C71.8948 59.3303 71.5121 58.852 71.2461 58.25C70.9801 57.648 70.8471 56.969 70.8471 56.213C70.8471 55.4617 70.9778 54.785 71.2391 54.183C71.5051 53.581 71.8854 53.105 72.3801 52.755C72.8748 52.405 73.4674 52.23 74.1581 52.23C74.8674 52.23 75.4648 52.4027 75.9501 52.748C76.4354 53.0933 76.8018 53.567 77.0491 54.169C77.3011 54.7663 77.4271 55.4477 77.4271 56.213C77.4271 56.9643 77.3034 57.6433 77.0561 58.25C76.8088 58.852 76.4448 59.3303 75.9641 59.685C75.4834 60.035 74.8954 60.21 74.2001 60.21ZM74.3051 59.251C74.8418 59.251 75.2851 59.1203 75.6351 58.859C75.9851 58.5977 76.2464 58.2383 76.4191 57.781C76.5918 57.319 76.6781 56.7963 76.6781 56.213C76.6781 55.6203 76.5918 55.0977 76.4191 54.645C76.2464 54.1877 75.9851 53.8307 75.6351 53.574C75.2898 53.3173 74.8534 53.189 74.3261 53.189C73.7848 53.189 73.3368 53.322 72.9821 53.588C72.6274 53.854 72.3638 54.2157 72.1911 54.673C72.0231 55.1303 71.9391 55.6437 71.9391 56.213C71.9391 56.787 72.0254 57.305 72.1981 57.767C72.3754 58.2243 72.6391 58.586 72.9891 58.852C73.3391 59.118 73.7778 59.251 74.3051 59.251ZM76.5661 63.36V58.131H76.6781V52.44H77.6021V63.36H76.5661ZM82.4569 60.189C82.0043 60.189 81.6076 60.119 81.2669 59.979C80.9309 59.839 80.6439 59.65 80.4059 59.412C80.1726 59.174 79.9836 58.9033 79.8389 58.6C79.6943 58.292 79.5893 57.9677 79.5239 57.627C79.4586 57.2817 79.4259 56.9387 79.4259 56.598V52.44H80.4619V56.297C80.4619 56.7123 80.5016 57.0973 80.5809 57.452C80.6603 57.8067 80.7863 58.117 80.9589 58.383C81.1363 58.6443 81.3626 58.8473 81.6379 58.992C81.9179 59.1367 82.2563 59.209 82.6529 59.209C83.0169 59.209 83.3366 59.146 83.6119 59.02C83.8919 58.894 84.1253 58.7143 84.3119 58.481C84.5033 58.243 84.6479 57.956 84.7459 57.62C84.8439 57.2793 84.8929 56.8967 84.8929 56.472L85.6209 56.633C85.6209 57.4077 85.4856 58.0587 85.2149 58.586C84.9443 59.1133 84.5709 59.5123 84.0949 59.783C83.6189 60.0537 83.0729 60.189 82.4569 60.189ZM84.9979 60V58.138H84.8929V52.44H85.9219V60H84.9979ZM91.0774 60.21C90.3401 60.21 89.7008 60.0467 89.1594 59.72C88.6228 59.3933 88.2051 58.9337 87.9064 58.341C87.6078 57.7483 87.4584 57.053 87.4584 56.255C87.4584 55.429 87.6054 54.715 87.8994 54.113C88.1934 53.511 88.6064 53.0467 89.1384 52.72C89.6751 52.3933 90.3074 52.23 91.0354 52.23C91.7821 52.23 92.4191 52.4027 92.9464 52.748C93.4738 53.0887 93.8728 53.5787 94.1434 54.218C94.4141 54.8573 94.5378 55.6203 94.5144 56.507H93.4644V56.143C93.4458 55.163 93.2334 54.4233 92.8274 53.924C92.4261 53.4247 91.8381 53.175 91.0634 53.175C90.2514 53.175 89.6284 53.4387 89.1944 53.966C88.7651 54.4933 88.5504 55.2447 88.5504 56.22C88.5504 57.172 88.7651 57.9117 89.1944 58.439C89.6284 58.9617 90.2421 59.223 91.0354 59.223C91.5768 59.223 92.0481 59.0993 92.4494 58.852C92.8554 58.6 93.1751 58.2383 93.4084 57.767L94.3674 58.138C94.0688 58.796 93.6278 59.307 93.0444 59.671C92.4658 60.0303 91.8101 60.21 91.0774 60.21ZM88.1864 56.507V55.646H93.9614V56.507H88.1864ZM98.8889 60.203C98.0022 60.203 97.2719 60.0117 96.6979 59.629C96.1286 59.2463 95.7786 58.7143 95.6479 58.033L96.6979 57.858C96.8099 58.2873 97.0642 58.6303 97.4609 58.887C97.8622 59.139 98.3569 59.265 98.9449 59.265C99.5189 59.265 99.9716 59.146 100.303 58.908C100.634 58.6653 100.8 58.3363 100.8 57.921C100.8 57.6877 100.746 57.4987 100.639 57.354C100.536 57.2047 100.324 57.067 100.002 56.941C99.6799 56.815 99.1992 56.6657 98.5599 56.493C97.8739 56.3063 97.3372 56.1197 96.9499 55.933C96.5626 55.7463 96.2872 55.5317 96.1239 55.289C95.9606 55.0417 95.8789 54.7407 95.8789 54.386C95.8789 53.9567 96.0002 53.581 96.2429 53.259C96.4856 52.9323 96.8216 52.6803 97.2509 52.503C97.6802 52.321 98.1796 52.23 98.7489 52.23C99.3182 52.23 99.8269 52.3233 100.275 52.51C100.728 52.692 101.092 52.9487 101.367 53.28C101.642 53.6113 101.806 53.9963 101.857 54.435L100.807 54.624C100.737 54.1807 100.515 53.8307 100.142 53.574C99.7732 53.3127 99.3042 53.1773 98.7349 53.168C98.1982 53.154 97.7619 53.2567 97.4259 53.476C97.0899 53.6907 96.9219 53.9777 96.9219 54.337C96.9219 54.5377 96.9826 54.7103 97.1039 54.855C97.2252 54.995 97.4446 55.128 97.7619 55.254C98.0839 55.38 98.5412 55.5177 99.1339 55.667C99.8292 55.8443 100.375 56.031 100.772 56.227C101.169 56.423 101.451 56.654 101.619 56.92C101.787 57.186 101.871 57.515 101.871 57.907C101.871 58.621 101.605 59.1833 101.073 59.594C100.546 60 99.8176 60.203 98.8889 60.203ZM107.539 60C107.115 60.0887 106.695 60.1237 106.279 60.105C105.869 60.0863 105.5 59.9977 105.173 59.839C104.851 59.6803 104.606 59.433 104.438 59.097C104.303 58.817 104.228 58.5347 104.214 58.25C104.205 57.9607 104.2 57.6317 104.2 57.263V50.34H105.222V57.221C105.222 57.5383 105.225 57.8043 105.229 58.019C105.239 58.229 105.288 58.4157 105.376 58.579C105.544 58.8917 105.81 59.0783 106.174 59.139C106.543 59.1997 106.998 59.1857 107.539 59.097V60ZM102.583 53.322V52.44H107.539V53.322H102.583ZM109.169 51.005V49.85H110.198V51.005H109.169ZM109.169 60V52.44H110.198V60H109.169ZM115.453 60.21C114.702 60.21 114.06 60.0397 113.528 59.699C112.996 59.3583 112.588 58.887 112.303 58.285C112.019 57.683 111.876 56.9923 111.876 56.213C111.876 55.4197 112.021 54.7243 112.31 54.127C112.6 53.5297 113.01 53.0653 113.542 52.734C114.079 52.398 114.716 52.23 115.453 52.23C116.209 52.23 116.853 52.4003 117.385 52.741C117.922 53.077 118.33 53.546 118.61 54.148C118.895 54.7453 119.037 55.4337 119.037 56.213C119.037 57.0063 118.895 57.704 118.61 58.306C118.326 58.9033 117.915 59.37 117.378 59.706C116.842 60.042 116.2 60.21 115.453 60.21ZM115.453 59.223C116.293 59.223 116.919 58.9453 117.329 58.39C117.74 57.83 117.945 57.1043 117.945 56.213C117.945 55.2983 117.738 54.5703 117.322 54.029C116.912 53.4877 116.289 53.217 115.453 53.217C114.889 53.217 114.422 53.3453 114.053 53.602C113.689 53.854 113.416 54.2063 113.234 54.659C113.057 55.107 112.968 55.625 112.968 56.213C112.968 57.123 113.178 57.8533 113.598 58.404C114.018 58.95 114.637 59.223 115.453 59.223ZM126.042 60V56.143C126.042 55.723 126.002 55.338 125.923 54.988C125.843 54.6333 125.715 54.3253 125.538 54.064C125.365 53.798 125.139 53.5927 124.859 53.448C124.583 53.3033 124.247 53.231 123.851 53.231C123.487 53.231 123.165 53.294 122.885 53.42C122.609 53.546 122.376 53.728 122.185 53.966C121.998 54.1993 121.856 54.484 121.758 54.82C121.66 55.156 121.611 55.5387 121.611 55.968L120.883 55.807C120.883 55.0323 121.018 54.3813 121.289 53.854C121.559 53.3267 121.933 52.9277 122.409 52.657C122.885 52.3863 123.431 52.251 124.047 52.251C124.499 52.251 124.894 52.321 125.23 52.461C125.57 52.601 125.857 52.79 126.091 53.028C126.329 53.266 126.52 53.539 126.665 53.847C126.809 54.1503 126.914 54.4747 126.98 54.82C127.045 55.1607 127.078 55.5013 127.078 55.842V60H126.042ZM120.575 60V52.44H121.506V54.302H121.611V60H120.575ZM131.715 60.203C130.828 60.203 130.098 60.0117 129.524 59.629C128.955 59.2463 128.605 58.7143 128.474 58.033L129.524 57.858C129.636 58.2873 129.89 58.6303 130.287 58.887C130.688 59.139 131.183 59.265 131.771 59.265C132.345 59.265 132.798 59.146 133.129 58.908C133.46 58.6653 133.626 58.3363 133.626 57.921C133.626 57.6877 133.572 57.4987 133.465 57.354C133.362 57.2047 133.15 57.067 132.828 56.941C132.506 56.815 132.025 56.6657 131.386 56.493C130.7 56.3063 130.163 56.1197 129.776 55.933C129.389 55.7463 129.113 55.5317 128.95 55.289C128.787 55.0417 128.705 54.7407 128.705 54.386C128.705 53.9567 128.826 53.581 129.069 53.259C129.312 52.9323 129.648 52.6803 130.077 52.503C130.506 52.321 131.006 52.23 131.575 52.23C132.144 52.23 132.653 52.3233 133.101 52.51C133.554 52.692 133.918 52.9487 134.193 53.28C134.468 53.6113 134.632 53.9963 134.683 54.435L133.633 54.624C133.563 54.1807 133.341 53.8307 132.968 53.574C132.599 53.3127 132.13 53.1773 131.561 53.168C131.024 53.154 130.588 53.2567 130.252 53.476C129.916 53.6907 129.748 53.9777 129.748 54.337C129.748 54.5377 129.809 54.7103 129.93 54.855C130.051 54.995 130.271 55.128 130.588 55.254C130.91 55.38 131.367 55.5177 131.96 55.667C132.655 55.8443 133.201 56.031 133.598 56.227C133.995 56.423 134.277 56.654 134.445 56.92C134.613 57.186 134.697 57.515 134.697 57.907C134.697 58.621 134.431 59.1833 133.899 59.594C133.372 60 132.644 60.203 131.715 60.203ZM138.224 57.249C138.224 56.885 138.24 56.5653 138.273 56.29C138.31 56.01 138.403 55.73 138.553 55.45C138.693 55.184 138.865 54.9647 139.071 54.792C139.276 54.6147 139.491 54.449 139.715 54.295C139.939 54.1363 140.151 53.9497 140.352 53.735C140.534 53.525 140.655 53.3127 140.716 53.098C140.776 52.8833 140.807 52.657 140.807 52.419C140.807 52.181 140.776 51.9687 140.716 51.782C140.66 51.5953 140.571 51.4343 140.45 51.299C140.263 51.0703 140.034 50.914 139.764 50.83C139.493 50.746 139.211 50.704 138.917 50.704C138.627 50.704 138.357 50.746 138.105 50.83C137.857 50.9093 137.652 51.033 137.489 51.201C137.33 51.3503 137.213 51.53 137.139 51.74C137.069 51.95 137.034 52.1717 137.034 52.405H135.97C135.988 52.0363 136.068 51.677 136.208 51.327C136.352 50.9723 136.562 50.676 136.838 50.438C137.113 50.186 137.433 50.004 137.797 49.892C138.165 49.7753 138.536 49.717 138.91 49.717C139.367 49.717 139.801 49.787 140.212 49.927C140.622 50.0623 140.968 50.291 141.248 50.613C141.472 50.851 141.635 51.124 141.738 51.432C141.845 51.7353 141.899 52.0597 141.899 52.405C141.899 52.7923 141.826 53.1563 141.682 53.497C141.537 53.8377 141.334 54.141 141.073 54.407C140.914 54.5797 140.734 54.7407 140.534 54.89C140.333 55.0347 140.139 55.1863 139.953 55.345C139.771 55.499 139.631 55.667 139.533 55.849C139.411 56.073 139.344 56.2853 139.33 56.486C139.32 56.6867 139.316 56.941 139.316 57.249H138.224ZM138.231 60V58.628H139.316V60H138.231Z" fill="#565973"/>
<path d="M12.6567 101.21C11.6487 101.21 10.7901 100.991 10.0807 100.552C9.37139 100.109 8.82773 99.4927 8.44973 98.704C8.07639 97.9153 7.88973 97.0007 7.88973 95.96C7.88973 94.9193 8.07639 94.0047 8.44973 93.216C8.82773 92.4273 9.37139 91.8137 10.0807 91.375C10.7901 90.9317 11.6487 90.71 12.6567 90.71C13.8187 90.71 14.7801 91.004 15.5407 91.592C16.3061 92.18 16.8381 92.971 17.1367 93.965L15.6527 94.364C15.4567 93.6593 15.1067 93.1063 14.6027 92.705C14.1034 92.3037 13.4547 92.103 12.6567 92.103C11.9427 92.103 11.3477 92.264 10.8717 92.586C10.3957 92.908 10.0364 93.3583 9.79373 93.937C9.55573 94.5157 9.43673 95.19 9.43673 95.96C9.43206 96.73 9.54873 97.4043 9.78673 97.983C10.0294 98.5617 10.3887 99.012 10.8647 99.334C11.3454 99.656 11.9427 99.817 12.6567 99.817C13.4547 99.817 14.1034 99.6163 14.6027 99.215C15.1067 98.809 15.4567 98.256 15.6527 97.556L17.1367 97.955C16.8381 98.949 16.3061 99.74 15.5407 100.328C14.7801 100.916 13.8187 101.21 12.6567 101.21ZM21.9593 101.21C21.2033 101.21 20.5476 101.04 19.9923 100.699C19.437 100.358 19.0076 99.8893 18.7043 99.292C18.4056 98.69 18.2563 97.997 18.2563 97.213C18.2563 96.4243 18.4103 95.7313 18.7183 95.134C19.0263 94.532 19.458 94.0653 20.0133 93.734C20.5686 93.398 21.2173 93.23 21.9593 93.23C22.7153 93.23 23.371 93.4003 23.9263 93.741C24.4816 94.0817 24.911 94.5507 25.2143 95.148C25.5176 95.7453 25.6693 96.4337 25.6693 97.213C25.6693 98.0017 25.5153 98.697 25.2073 99.299C24.904 99.8963 24.4746 100.365 23.9193 100.706C23.364 101.042 22.7106 101.21 21.9593 101.21ZM21.9593 99.831C22.6826 99.831 23.2216 99.5883 23.5763 99.103C23.9356 98.613 24.1153 97.983 24.1153 97.213C24.1153 96.4243 23.9333 95.7943 23.5693 95.323C23.21 94.847 22.6733 94.609 21.9593 94.609C21.4693 94.609 21.0656 94.721 20.7483 94.945C20.431 95.1643 20.1953 95.47 20.0413 95.862C19.8873 96.2493 19.8103 96.6997 19.8103 97.213C19.8103 98.0063 19.9923 98.641 20.3563 99.117C20.7203 99.593 21.2546 99.831 21.9593 99.831ZM32.5135 101V97.283C32.5135 96.989 32.4879 96.688 32.4365 96.38C32.3899 96.0673 32.2965 95.778 32.1565 95.512C32.0212 95.246 31.8275 95.0313 31.5755 94.868C31.3282 94.7047 31.0039 94.623 30.6025 94.623C30.3412 94.623 30.0939 94.6673 29.8605 94.756C29.6272 94.84 29.4219 94.9777 29.2445 95.169C29.0719 95.3603 28.9342 95.6123 28.8315 95.925C28.7335 96.2377 28.6845 96.618 28.6845 97.066L27.7745 96.723C27.7745 96.037 27.9029 95.4327 28.1595 94.91C28.4162 94.3827 28.7849 93.972 29.2655 93.678C29.7462 93.384 30.3272 93.237 31.0085 93.237C31.5312 93.237 31.9699 93.321 32.3245 93.489C32.6792 93.657 32.9662 93.8787 33.1855 94.154C33.4095 94.4247 33.5799 94.721 33.6965 95.043C33.8132 95.365 33.8925 95.68 33.9345 95.988C33.9765 96.296 33.9975 96.5667 33.9975 96.8V101H32.5135ZM27.2005 101V93.44H28.5095V95.624H28.6845V101H27.2005ZM40.1468 101C39.6708 101.093 39.2042 101.133 38.7468 101.119C38.2895 101.105 37.8812 101.016 37.5218 100.853C37.1625 100.69 36.8918 100.433 36.7098 100.083C36.5465 99.7703 36.4578 99.453 36.4438 99.131C36.4345 98.8043 36.4298 98.4357 36.4298 98.025V91.34H37.8998V97.955C37.8998 98.2583 37.9022 98.522 37.9068 98.746C37.9162 98.97 37.9652 99.159 38.0538 99.313C38.2218 99.6023 38.4878 99.768 38.8518 99.81C39.2205 99.8473 39.6522 99.831 40.1468 99.761V101ZM34.9808 94.616V93.44H40.1468V94.616H34.9808ZM43.8757 101.21C43.3157 101.21 42.8467 101.107 42.4687 100.902C42.0907 100.692 41.8037 100.417 41.6077 100.076C41.4164 99.7307 41.3207 99.3527 41.3207 98.942C41.3207 98.5593 41.3884 98.2233 41.5237 97.934C41.6591 97.6447 41.8597 97.3997 42.1257 97.199C42.3917 96.9937 42.7184 96.828 43.1057 96.702C43.4417 96.604 43.8221 96.5177 44.2467 96.443C44.6714 96.3683 45.1171 96.2983 45.5837 96.233C46.0551 96.1677 46.5217 96.1023 46.9837 96.037L46.4517 96.331C46.4611 95.7383 46.3351 95.2997 46.0737 95.015C45.8171 94.7257 45.3737 94.581 44.7437 94.581C44.3471 94.581 43.9831 94.6743 43.6517 94.861C43.3204 95.043 43.0894 95.3463 42.9587 95.771L41.5937 95.351C41.7804 94.7023 42.1351 94.1867 42.6577 93.804C43.1851 93.4213 43.8851 93.23 44.7577 93.23C45.4344 93.23 46.0224 93.3467 46.5217 93.58C47.0257 93.8087 47.3944 94.1727 47.6277 94.672C47.7491 94.9193 47.8237 95.1807 47.8517 95.456C47.8797 95.7313 47.8937 96.0277 47.8937 96.345V101H46.5987V99.271L46.8507 99.495C46.5381 100.074 46.1391 100.505 45.6537 100.79C45.1731 101.07 44.5804 101.21 43.8757 101.21ZM44.1347 100.013C44.5501 100.013 44.9071 99.9407 45.2057 99.796C45.5044 99.6467 45.7447 99.4577 45.9267 99.229C46.1087 99.0003 46.2277 98.7623 46.2837 98.515C46.3631 98.291 46.4074 98.039 46.4167 97.759C46.4307 97.479 46.4377 97.255 46.4377 97.087L46.9137 97.262C46.4517 97.332 46.0317 97.395 45.6537 97.451C45.2757 97.507 44.9327 97.563 44.6247 97.619C44.3214 97.6703 44.0507 97.7333 43.8127 97.808C43.6121 97.878 43.4324 97.962 43.2737 98.06C43.1197 98.158 42.9961 98.277 42.9027 98.417C42.8141 98.557 42.7697 98.7273 42.7697 98.928C42.7697 99.124 42.8187 99.306 42.9167 99.474C43.0147 99.6373 43.1641 99.768 43.3647 99.866C43.5654 99.964 43.8221 100.013 44.1347 100.013ZM52.9454 101.21C52.1708 101.21 51.5128 101.037 50.9714 100.692C50.4301 100.347 50.0148 99.873 49.7254 99.271C49.4408 98.669 49.2961 97.9853 49.2914 97.22C49.2961 96.4407 49.4454 95.7523 49.7394 95.155C50.0334 94.553 50.4534 94.0817 50.9994 93.741C51.5454 93.4003 52.2011 93.23 52.9664 93.23C53.7924 93.23 54.4971 93.4353 55.0804 93.846C55.6684 94.2567 56.0558 94.819 56.2424 95.533L54.7864 95.953C54.6418 95.5283 54.4038 95.1993 54.0724 94.966C53.7458 94.728 53.3701 94.609 52.9454 94.609C52.4648 94.609 52.0704 94.7233 51.7624 94.952C51.4544 95.176 51.2258 95.484 51.0764 95.876C50.9271 96.268 50.8501 96.716 50.8454 97.22C50.8501 97.9993 51.0274 98.6293 51.3774 99.11C51.7321 99.5907 52.2548 99.831 52.9454 99.831C53.4168 99.831 53.7971 99.7237 54.0864 99.509C54.3804 99.2897 54.6044 98.977 54.7584 98.571L56.2424 98.921C55.9951 99.6583 55.5868 100.225 55.0174 100.622C54.4481 101.014 53.7574 101.21 52.9454 101.21ZM61.9945 101C61.5185 101.093 61.0518 101.133 60.5945 101.119C60.1371 101.105 59.7288 101.016 59.3695 100.853C59.0101 100.69 58.7395 100.433 58.5575 100.083C58.3941 99.7703 58.3055 99.453 58.2915 99.131C58.2821 98.8043 58.2775 98.4357 58.2775 98.025V91.34H59.7475V97.955C59.7475 98.2583 59.7498 98.522 59.7545 98.746C59.7638 98.97 59.8128 99.159 59.9015 99.313C60.0695 99.6023 60.3355 99.768 60.6995 99.81C61.0681 99.8473 61.4998 99.831 61.9945 99.761V101ZM56.8285 94.616V93.44H61.9945V94.616H56.8285ZM69.2401 101.203C68.7175 101.203 68.2788 101.119 67.9241 100.951C67.5695 100.783 67.2801 100.564 67.0561 100.293C66.8368 100.018 66.6688 99.719 66.5521 99.397C66.4355 99.075 66.3561 98.76 66.3141 98.452C66.2721 98.144 66.2511 97.8733 66.2511 97.64V93.44H67.7351V97.157C67.7351 97.451 67.7585 97.7543 67.8051 98.067C67.8565 98.375 67.9498 98.662 68.0851 98.928C68.2251 99.194 68.4188 99.4087 68.6661 99.572C68.9181 99.7353 69.2448 99.817 69.6461 99.817C69.9075 99.817 70.1548 99.775 70.3881 99.691C70.6215 99.6023 70.8245 99.4623 70.9971 99.271C71.1745 99.0797 71.3121 98.8277 71.4101 98.515C71.5128 98.2023 71.5641 97.822 71.5641 97.374L72.4741 97.717C72.4741 98.403 72.3458 99.0097 72.0891 99.537C71.8325 100.06 71.4638 100.468 70.9831 100.762C70.5025 101.056 69.9215 101.203 69.2401 101.203ZM71.7391 101V98.816H71.5641V93.44H73.0411V101H71.7391ZM77.8954 101.203C76.9761 101.203 76.2271 101 75.6484 100.594C75.0697 100.188 74.7151 99.6163 74.5844 98.879L76.0824 98.648C76.1757 99.04 76.3904 99.3503 76.7264 99.579C77.0671 99.803 77.4894 99.915 77.9934 99.915C78.4507 99.915 78.8077 99.8217 79.0644 99.635C79.3257 99.4483 79.4564 99.1917 79.4564 98.865C79.4564 98.6737 79.4097 98.5197 79.3164 98.403C79.2277 98.2817 79.0387 98.1673 78.7494 98.06C78.4601 97.9527 78.0191 97.8197 77.4264 97.661C76.7777 97.493 76.2621 97.3133 75.8794 97.122C75.5014 96.926 75.2307 96.6997 75.0674 96.443C74.9087 96.1817 74.8294 95.8667 74.8294 95.498C74.8294 95.0407 74.9507 94.6417 75.1934 94.301C75.4361 93.9603 75.7767 93.6967 76.2154 93.51C76.6587 93.3233 77.1767 93.23 77.7694 93.23C78.3481 93.23 78.8637 93.321 79.3164 93.503C79.7691 93.685 80.1354 93.944 80.4154 94.28C80.6954 94.6113 80.8634 95.001 80.9194 95.449L79.4214 95.722C79.3701 95.358 79.1997 95.071 78.9104 94.861C78.6211 94.651 78.2454 94.5367 77.7834 94.518C77.3401 94.4993 76.9807 94.574 76.7054 94.742C76.4301 94.9053 76.2924 95.1317 76.2924 95.421C76.2924 95.589 76.3437 95.7313 76.4464 95.848C76.5537 95.9647 76.7591 96.0767 77.0624 96.184C77.3657 96.2913 77.8137 96.4197 78.4064 96.569C79.0411 96.7323 79.5451 96.9143 79.9184 97.115C80.2917 97.311 80.5577 97.5467 80.7164 97.822C80.8797 98.0927 80.9614 98.4217 80.9614 98.809C80.9614 99.5557 80.6884 100.141 80.1424 100.566C79.6011 100.991 78.8521 101.203 77.8954 101.203Z" fill="#6366F1"/>
<path d="M99.4108 100.411L100.589 101.589L106.178 96L100.589 90.4108L99.4108 91.5892L102.988 95.1667H95V96.8333H102.988L99.4108 100.411Z" fill="#6366F1"/>
<defs>
<clipPath id="clip0_18_164">
<rect width="28" height="28" fill="white" transform="translate(7)"/>
</clipPath>
</defs>
</svg>
