<svg width="204" height="174" viewBox="0 0 204 174" fill="none" xmlns="http://www.w3.org/2000/svg">
<g filter="url(#filter0_d_4633_10428)">
<rect x="4.5" y="0.5" width="195" height="165" rx="7.5" stroke="#E2E5F1" shape-rendering="crispEdges"/>
<g clip-path="url(#clip0_4633_10428)">
<path d="M49.2871 42.5226C48.3724 41.6194 47.2304 41.6194 46.3214 42.5226C45.6281 43.2101 44.9347 43.8976 44.253 44.5968C44.0666 44.7891 43.9092 44.8299 43.682 44.7017C43.2334 44.457 42.7556 44.2589 42.3244 43.9908C40.3143 42.7265 38.6304 41.1009 37.1388 39.2714C36.3988 38.3624 35.7404 37.3894 35.2802 36.294C35.1869 36.0726 35.2044 35.9269 35.385 35.7463C36.0784 35.0763 36.7543 34.3887 37.436 33.7012C38.3857 32.7456 38.3857 31.6269 37.4301 30.6656C36.8883 30.1179 36.3464 29.5818 35.8045 29.0341C35.2452 28.4748 34.6917 27.9096 34.1265 27.3561C33.2117 26.4646 32.0697 26.4646 31.1608 27.3619C30.4616 28.0495 29.7916 28.7545 29.0807 29.4303C28.4223 30.0538 28.0902 30.8171 28.0203 31.7085C27.9096 33.1593 28.265 34.5286 28.7661 35.8628C29.7916 38.6246 31.3531 41.0776 33.2467 43.3266C35.8045 46.3681 38.8576 48.7744 42.4293 50.5107C44.0374 51.2915 45.7038 51.8916 47.5159 51.9907C48.7627 52.0606 49.8465 51.746 50.7146 50.7729C51.3089 50.1087 51.979 49.5027 52.6083 48.8676C53.5405 47.9237 53.5463 46.7818 52.6199 45.8495C51.5129 44.7366 50.4 43.6296 49.2871 42.5226Z" fill="#6366F1"/>
<path d="M48.1744 37.8788L50.3243 37.5118C49.9864 35.5366 49.0542 33.7478 47.6383 32.3261C46.1409 30.8287 44.2473 29.8848 42.1614 29.5935L41.8584 31.7551C43.4723 31.9824 44.9406 32.7107 46.1001 33.8702C47.1955 34.9656 47.9122 36.3523 48.1744 37.8788Z" fill="#6366F1"/>
<path d="M51.5359 28.533C49.0538 26.0509 45.9133 24.4836 42.4465 24L42.1436 26.1616C45.1384 26.5812 47.8536 27.9387 49.9977 30.0771C52.0312 32.1105 53.3655 34.68 53.8491 37.5059L55.999 37.1388C55.4339 33.8643 53.8898 30.8928 51.5359 28.533Z" fill="#6366F1"/>
</g>
<path d="M32.48 84.21C31.7753 84.21 31.1407 84.0933 30.576 83.86C30.016 83.622 29.5517 83.286 29.183 82.852C28.819 82.418 28.581 81.9023 28.469 81.305L29.519 81.13C29.687 81.7833 30.0417 82.2967 30.583 82.67C31.1243 83.0387 31.7707 83.223 32.522 83.223C33.0167 83.223 33.46 83.146 33.852 82.992C34.244 82.8333 34.552 82.6093 34.776 82.32C35 82.0307 35.112 81.6877 35.112 81.291C35.112 81.0297 35.0653 80.808 34.972 80.626C34.8787 80.4393 34.755 80.2853 34.601 80.164C34.447 80.0427 34.279 79.9423 34.097 79.863C33.915 79.779 33.7377 79.7113 33.565 79.66L31.01 78.897C30.702 78.8083 30.4173 78.6963 30.156 78.561C29.8947 78.421 29.666 78.2553 29.47 78.064C29.2787 77.868 29.1293 77.6393 29.022 77.378C28.9147 77.1167 28.861 76.818 28.861 76.482C28.861 75.9127 29.0103 75.4203 29.309 75.005C29.6077 74.5897 30.016 74.27 30.534 74.046C31.052 73.822 31.6423 73.7123 32.305 73.717C32.977 73.717 33.5767 73.836 34.104 74.074C34.636 74.312 35.0747 74.6527 35.42 75.096C35.7653 75.5347 35.994 76.055 36.106 76.657L35.028 76.853C34.958 76.4143 34.797 76.034 34.545 75.712C34.293 75.39 33.971 75.1427 33.579 74.97C33.1917 74.7927 32.7647 74.7017 32.298 74.697C31.8453 74.697 31.4417 74.774 31.087 74.928C30.737 75.0773 30.4593 75.2827 30.254 75.544C30.0487 75.8053 29.946 76.104 29.946 76.44C29.946 76.7807 30.0393 77.0537 30.226 77.259C30.4173 77.4643 30.6507 77.6253 30.926 77.742C31.206 77.8587 31.4767 77.9543 31.738 78.029L33.712 78.61C33.9173 78.666 34.1577 78.7477 34.433 78.855C34.713 78.9577 34.9837 79.107 35.245 79.303C35.511 79.4943 35.7303 79.7463 35.903 80.059C36.0757 80.3717 36.162 80.7683 36.162 81.249C36.162 81.7157 36.0687 82.1333 35.882 82.502C35.7 82.8707 35.441 83.181 35.105 83.433C34.7737 83.685 34.384 83.8763 33.936 84.007C33.4927 84.1423 33.0073 84.21 32.48 84.21ZM41.723 84C41.2983 84.0887 40.8783 84.1237 40.463 84.105C40.0523 84.0863 39.6836 83.9977 39.357 83.839C39.035 83.6803 38.79 83.433 38.622 83.097C38.4866 82.817 38.412 82.5347 38.398 82.25C38.3886 81.9607 38.384 81.6317 38.384 81.263V74.34H39.406V81.221C39.406 81.5383 39.4083 81.8043 39.413 82.019C39.4223 82.229 39.4713 82.4157 39.56 82.579C39.728 82.8917 39.994 83.0783 40.358 83.139C40.7266 83.1997 41.1816 83.1857 41.723 83.097V84ZM36.767 77.322V76.44H41.723V77.322H36.767ZM43.3524 75.005V73.85H44.3814V75.005H43.3524ZM43.3524 84V76.44H44.3814V84H43.3524ZM46.62 84V73.71H47.649V84H46.62ZM49.8876 84V73.71H50.9166V84H49.8876ZM61.2779 84V80.143C61.2779 79.723 61.2382 79.338 61.1589 78.988C61.0796 78.6333 60.9512 78.3253 60.7739 78.064C60.6012 77.798 60.3749 77.5927 60.0949 77.448C59.8196 77.3033 59.4836 77.231 59.0869 77.231C58.7229 77.231 58.4009 77.294 58.1209 77.42C57.8456 77.546 57.6122 77.728 57.4209 77.966C57.2342 78.1993 57.0919 78.484 56.9939 78.82C56.8959 79.156 56.8469 79.5387 56.8469 79.968L56.1189 79.807C56.1189 79.0323 56.2542 78.3813 56.5249 77.854C56.7956 77.3267 57.1689 76.9277 57.6449 76.657C58.1209 76.3863 58.6669 76.251 59.2829 76.251C59.7356 76.251 60.1299 76.321 60.4659 76.461C60.8066 76.601 61.0936 76.79 61.3269 77.028C61.5649 77.266 61.7562 77.539 61.9009 77.847C62.0456 78.1503 62.1506 78.4747 62.2159 78.82C62.2812 79.1607 62.3139 79.5013 62.3139 79.842V84H61.2779ZM55.8109 84V73.92H56.7419V79.611H56.8469V84H55.8109ZM66.2934 84.21C65.7241 84.21 65.2457 84.1073 64.8584 83.902C64.4757 83.6967 64.1887 83.4237 63.9974 83.083C63.8061 82.7423 63.7104 82.3713 63.7104 81.97C63.7104 81.5593 63.7921 81.2093 63.9554 80.92C64.1234 80.626 64.3497 80.3857 64.6344 80.199C64.9237 80.0123 65.2574 79.87 65.6354 79.772C66.0181 79.6787 66.4404 79.597 66.9024 79.527C67.3691 79.4523 67.8241 79.3893 68.2674 79.338C68.7154 79.282 69.1074 79.2283 69.4434 79.177L69.0794 79.401C69.0934 78.6543 68.9487 78.1013 68.6454 77.742C68.3421 77.3827 67.8147 77.203 67.0634 77.203C66.5454 77.203 66.1067 77.3197 65.7474 77.553C65.3927 77.7863 65.1431 78.155 64.9984 78.659L63.9974 78.365C64.1701 77.6883 64.5177 77.1633 65.0404 76.79C65.5631 76.4167 66.2421 76.23 67.0774 76.23C67.7681 76.23 68.3537 76.3607 68.8344 76.622C69.3197 76.8787 69.6627 77.252 69.8634 77.742C69.9567 77.9613 70.0174 78.2063 70.0454 78.477C70.0734 78.7477 70.0874 79.023 70.0874 79.303V84H69.1704V82.103L69.4364 82.215C69.1797 82.8637 68.7807 83.3583 68.2394 83.699C67.6981 84.0397 67.0494 84.21 66.2934 84.21ZM66.4124 83.321C66.8931 83.321 67.3131 83.2347 67.6724 83.062C68.0317 82.8893 68.3211 82.6537 68.5404 82.355C68.7597 82.0517 68.9021 81.711 68.9674 81.333C69.0234 81.0903 69.0537 80.8243 69.0584 80.535C69.0631 80.241 69.0654 80.0217 69.0654 79.877L69.4574 80.08C69.1074 80.1267 68.7271 80.1733 68.3164 80.22C67.9104 80.2667 67.5091 80.3203 67.1124 80.381C66.7204 80.4417 66.3657 80.514 66.0484 80.598C65.8337 80.6587 65.6261 80.745 65.4254 80.857C65.2247 80.9643 65.0591 81.109 64.9284 81.291C64.8024 81.473 64.7394 81.6993 64.7394 81.97C64.7394 82.1893 64.7931 82.4017 64.9004 82.607C65.0124 82.8123 65.1897 82.9827 65.4324 83.118C65.6797 83.2533 66.0064 83.321 66.4124 83.321ZM73.6803 84L70.9363 76.44H71.9793L74.2123 82.656L76.4313 76.44H77.4883L74.7443 84H73.6803ZM81.6712 84.21C80.9339 84.21 80.2945 84.0467 79.7532 83.72C79.2165 83.3933 78.7989 82.9337 78.5002 82.341C78.2015 81.7483 78.0522 81.053 78.0522 80.255C78.0522 79.429 78.1992 78.715 78.4932 78.113C78.7872 77.511 79.2002 77.0467 79.7322 76.72C80.2689 76.3933 80.9012 76.23 81.6292 76.23C82.3759 76.23 83.0129 76.4027 83.5402 76.748C84.0675 77.0887 84.4665 77.5787 84.7372 78.218C85.0079 78.8573 85.1315 79.6203 85.1082 80.507H84.0582V80.143C84.0395 79.163 83.8272 78.4233 83.4212 77.924C83.0199 77.4247 82.4319 77.175 81.6572 77.175C80.8452 77.175 80.2222 77.4387 79.7882 77.966C79.3589 78.4933 79.1442 79.2447 79.1442 80.22C79.1442 81.172 79.3589 81.9117 79.7882 82.439C80.2222 82.9617 80.8359 83.223 81.6292 83.223C82.1705 83.223 82.6419 83.0993 83.0432 82.852C83.4492 82.6 83.7689 82.2383 84.0022 81.767L84.9612 82.138C84.6625 82.796 84.2215 83.307 83.6382 83.671C83.0595 84.0303 82.4039 84.21 81.6712 84.21ZM78.7802 80.507V79.646H84.5552V80.507H78.7802ZM95.2001 84.21C94.4954 84.21 93.8934 84.035 93.3941 83.685C92.8948 83.3303 92.5121 82.852 92.2461 82.25C91.9801 81.648 91.8471 80.969 91.8471 80.213C91.8471 79.4617 91.9778 78.785 92.2391 78.183C92.5051 77.581 92.8854 77.105 93.3801 76.755C93.8748 76.405 94.4674 76.23 95.1581 76.23C95.8674 76.23 96.4648 76.4027 96.9501 76.748C97.4354 77.0933 97.8018 77.567 98.0491 78.169C98.3011 78.7663 98.4271 79.4477 98.4271 80.213C98.4271 80.9643 98.3034 81.6433 98.0561 82.25C97.8088 82.852 97.4448 83.3303 96.9641 83.685C96.4834 84.035 95.8954 84.21 95.2001 84.21ZM95.3051 83.251C95.8418 83.251 96.2851 83.1203 96.6351 82.859C96.9851 82.5977 97.2464 82.2383 97.4191 81.781C97.5918 81.319 97.6781 80.7963 97.6781 80.213C97.6781 79.6203 97.5918 79.0977 97.4191 78.645C97.2464 78.1877 96.9851 77.8307 96.6351 77.574C96.2898 77.3173 95.8534 77.189 95.3261 77.189C94.7848 77.189 94.3368 77.322 93.9821 77.588C93.6274 77.854 93.3638 78.2157 93.1911 78.673C93.0231 79.1303 92.9391 79.6437 92.9391 80.213C92.9391 80.787 93.0254 81.305 93.1981 81.767C93.3754 82.2243 93.6391 82.586 93.9891 82.852C94.3391 83.118 94.7778 83.251 95.3051 83.251ZM97.5661 87.36V82.131H97.6781V76.44H98.6021V87.36H97.5661ZM103.457 84.189C103.004 84.189 102.608 84.119 102.267 83.979C101.931 83.839 101.644 83.65 101.406 83.412C101.173 83.174 100.984 82.9033 100.839 82.6C100.694 82.292 100.589 81.9677 100.524 81.627C100.459 81.2817 100.426 80.9387 100.426 80.598V76.44H101.462V80.297C101.462 80.7123 101.502 81.0973 101.581 81.452C101.66 81.8067 101.786 82.117 101.959 82.383C102.136 82.6443 102.363 82.8473 102.638 82.992C102.918 83.1367 103.256 83.209 103.653 83.209C104.017 83.209 104.337 83.146 104.612 83.02C104.892 82.894 105.125 82.7143 105.312 82.481C105.503 82.243 105.648 81.956 105.746 81.62C105.844 81.2793 105.893 80.8967 105.893 80.472L106.621 80.633C106.621 81.4077 106.486 82.0587 106.215 82.586C105.944 83.1133 105.571 83.5123 105.095 83.783C104.619 84.0537 104.073 84.189 103.457 84.189ZM105.998 84V82.138H105.893V76.44H106.922V84H105.998ZM112.077 84.21C111.34 84.21 110.701 84.0467 110.159 83.72C109.623 83.3933 109.205 82.9337 108.906 82.341C108.608 81.7483 108.458 81.053 108.458 80.255C108.458 79.429 108.605 78.715 108.899 78.113C109.193 77.511 109.606 77.0467 110.138 76.72C110.675 76.3933 111.307 76.23 112.035 76.23C112.782 76.23 113.419 76.4027 113.946 76.748C114.474 77.0887 114.873 77.5787 115.143 78.218C115.414 78.8573 115.538 79.6203 115.514 80.507H114.464V80.143C114.446 79.163 114.233 78.4233 113.827 77.924C113.426 77.4247 112.838 77.175 112.063 77.175C111.251 77.175 110.628 77.4387 110.194 77.966C109.765 78.4933 109.55 79.2447 109.55 80.22C109.55 81.172 109.765 81.9117 110.194 82.439C110.628 82.9617 111.242 83.223 112.035 83.223C112.577 83.223 113.048 83.0993 113.449 82.852C113.855 82.6 114.175 82.2383 114.408 81.767L115.367 82.138C115.069 82.796 114.628 83.307 114.044 83.671C113.466 84.0303 112.81 84.21 112.077 84.21ZM109.186 80.507V79.646H114.961V80.507H109.186ZM119.889 84.203C119.002 84.203 118.272 84.0117 117.698 83.629C117.129 83.2463 116.779 82.7143 116.648 82.033L117.698 81.858C117.81 82.2873 118.064 82.6303 118.461 82.887C118.862 83.139 119.357 83.265 119.945 83.265C120.519 83.265 120.972 83.146 121.303 82.908C121.634 82.6653 121.8 82.3363 121.8 81.921C121.8 81.6877 121.746 81.4987 121.639 81.354C121.536 81.2047 121.324 81.067 121.002 80.941C120.68 80.815 120.199 80.6657 119.56 80.493C118.874 80.3063 118.337 80.1197 117.95 79.933C117.563 79.7463 117.287 79.5317 117.124 79.289C116.961 79.0417 116.879 78.7407 116.879 78.386C116.879 77.9567 117 77.581 117.243 77.259C117.486 76.9323 117.822 76.6803 118.251 76.503C118.68 76.321 119.18 76.23 119.749 76.23C120.318 76.23 120.827 76.3233 121.275 76.51C121.728 76.692 122.092 76.9487 122.367 77.28C122.642 77.6113 122.806 77.9963 122.857 78.435L121.807 78.624C121.737 78.1807 121.515 77.8307 121.142 77.574C120.773 77.3127 120.304 77.1773 119.735 77.168C119.198 77.154 118.762 77.2567 118.426 77.476C118.09 77.6907 117.922 77.9777 117.922 78.337C117.922 78.5377 117.983 78.7103 118.104 78.855C118.225 78.995 118.445 79.128 118.762 79.254C119.084 79.38 119.541 79.5177 120.134 79.667C120.829 79.8443 121.375 80.031 121.772 80.227C122.169 80.423 122.451 80.654 122.619 80.92C122.787 81.186 122.871 81.515 122.871 81.907C122.871 82.621 122.605 83.1833 122.073 83.594C121.546 84 120.818 84.203 119.889 84.203ZM128.539 84C128.115 84.0887 127.695 84.1237 127.279 84.105C126.869 84.0863 126.5 83.9977 126.173 83.839C125.851 83.6803 125.606 83.433 125.438 83.097C125.303 82.817 125.228 82.5347 125.214 82.25C125.205 81.9607 125.2 81.6317 125.2 81.263V74.34H126.222V81.221C126.222 81.5383 126.225 81.8043 126.229 82.019C126.239 82.229 126.288 82.4157 126.376 82.579C126.544 82.8917 126.81 83.0783 127.174 83.139C127.543 83.1997 127.998 83.1857 128.539 83.097V84ZM123.583 77.322V76.44H128.539V77.322H123.583ZM130.169 75.005V73.85H131.198V75.005H130.169ZM130.169 84V76.44H131.198V84H130.169ZM136.453 84.21C135.702 84.21 135.06 84.0397 134.528 83.699C133.996 83.3583 133.588 82.887 133.303 82.285C133.019 81.683 132.876 80.9923 132.876 80.213C132.876 79.4197 133.021 78.7243 133.31 78.127C133.6 77.5297 134.01 77.0653 134.542 76.734C135.079 76.398 135.716 76.23 136.453 76.23C137.209 76.23 137.853 76.4003 138.385 76.741C138.922 77.077 139.33 77.546 139.61 78.148C139.895 78.7453 140.037 79.4337 140.037 80.213C140.037 81.0063 139.895 81.704 139.61 82.306C139.326 82.9033 138.915 83.37 138.378 83.706C137.842 84.042 137.2 84.21 136.453 84.21ZM136.453 83.223C137.293 83.223 137.919 82.9453 138.329 82.39C138.74 81.83 138.945 81.1043 138.945 80.213C138.945 79.2983 138.738 78.5703 138.322 78.029C137.912 77.4877 137.289 77.217 136.453 77.217C135.889 77.217 135.422 77.3453 135.053 77.602C134.689 77.854 134.416 78.2063 134.234 78.659C134.057 79.107 133.968 79.625 133.968 80.213C133.968 81.123 134.178 81.8533 134.598 82.404C135.018 82.95 135.637 83.223 136.453 83.223ZM147.042 84V80.143C147.042 79.723 147.002 79.338 146.923 78.988C146.843 78.6333 146.715 78.3253 146.538 78.064C146.365 77.798 146.139 77.5927 145.859 77.448C145.583 77.3033 145.247 77.231 144.851 77.231C144.487 77.231 144.165 77.294 143.885 77.42C143.609 77.546 143.376 77.728 143.185 77.966C142.998 78.1993 142.856 78.484 142.758 78.82C142.66 79.156 142.611 79.5387 142.611 79.968L141.883 79.807C141.883 79.0323 142.018 78.3813 142.289 77.854C142.559 77.3267 142.933 76.9277 143.409 76.657C143.885 76.3863 144.431 76.251 145.047 76.251C145.499 76.251 145.894 76.321 146.23 76.461C146.57 76.601 146.857 76.79 147.091 77.028C147.329 77.266 147.52 77.539 147.665 77.847C147.809 78.1503 147.914 78.4747 147.98 78.82C148.045 79.1607 148.078 79.5013 148.078 79.842V84H147.042ZM141.575 84V76.44H142.506V78.302H142.611V84H141.575ZM152.715 84.203C151.828 84.203 151.098 84.0117 150.524 83.629C149.955 83.2463 149.605 82.7143 149.474 82.033L150.524 81.858C150.636 82.2873 150.89 82.6303 151.287 82.887C151.688 83.139 152.183 83.265 152.771 83.265C153.345 83.265 153.798 83.146 154.129 82.908C154.46 82.6653 154.626 82.3363 154.626 81.921C154.626 81.6877 154.572 81.4987 154.465 81.354C154.362 81.2047 154.15 81.067 153.828 80.941C153.506 80.815 153.025 80.6657 152.386 80.493C151.7 80.3063 151.163 80.1197 150.776 79.933C150.389 79.7463 150.113 79.5317 149.95 79.289C149.787 79.0417 149.705 78.7407 149.705 78.386C149.705 77.9567 149.826 77.581 150.069 77.259C150.312 76.9323 150.648 76.6803 151.077 76.503C151.506 76.321 152.006 76.23 152.575 76.23C153.144 76.23 153.653 76.3233 154.101 76.51C154.554 76.692 154.918 76.9487 155.193 77.28C155.468 77.6113 155.632 77.9963 155.683 78.435L154.633 78.624C154.563 78.1807 154.341 77.8307 153.968 77.574C153.599 77.3127 153.13 77.1773 152.561 77.168C152.024 77.154 151.588 77.2567 151.252 77.476C150.916 77.6907 150.748 77.9777 150.748 78.337C150.748 78.5377 150.809 78.7103 150.93 78.855C151.051 78.995 151.271 79.128 151.588 79.254C151.91 79.38 152.367 79.5177 152.96 79.667C153.655 79.8443 154.201 80.031 154.598 80.227C154.995 80.423 155.277 80.654 155.445 80.92C155.613 81.186 155.697 81.515 155.697 81.907C155.697 82.621 155.431 83.1833 154.899 83.594C154.372 84 153.644 84.203 152.715 84.203ZM159.224 81.249C159.224 80.885 159.24 80.5653 159.273 80.29C159.31 80.01 159.403 79.73 159.553 79.45C159.693 79.184 159.865 78.9647 160.071 78.792C160.276 78.6147 160.491 78.449 160.715 78.295C160.939 78.1363 161.151 77.9497 161.352 77.735C161.534 77.525 161.655 77.3127 161.716 77.098C161.776 76.8833 161.807 76.657 161.807 76.419C161.807 76.181 161.776 75.9687 161.716 75.782C161.66 75.5953 161.571 75.4343 161.45 75.299C161.263 75.0703 161.034 74.914 160.764 74.83C160.493 74.746 160.211 74.704 159.917 74.704C159.627 74.704 159.357 74.746 159.105 74.83C158.857 74.9093 158.652 75.033 158.489 75.201C158.33 75.3503 158.213 75.53 158.139 75.74C158.069 75.95 158.034 76.1717 158.034 76.405H156.97C156.988 76.0363 157.068 75.677 157.208 75.327C157.352 74.9723 157.562 74.676 157.838 74.438C158.113 74.186 158.433 74.004 158.797 73.892C159.165 73.7753 159.536 73.717 159.91 73.717C160.367 73.717 160.801 73.787 161.212 73.927C161.622 74.0623 161.968 74.291 162.248 74.613C162.472 74.851 162.635 75.124 162.738 75.432C162.845 75.7353 162.899 76.0597 162.899 76.405C162.899 76.7923 162.826 77.1563 162.682 77.497C162.537 77.8377 162.334 78.141 162.073 78.407C161.914 78.5797 161.734 78.7407 161.534 78.89C161.333 79.0347 161.139 79.1863 160.953 79.345C160.771 79.499 160.631 79.667 160.533 79.849C160.411 80.073 160.344 80.2853 160.33 80.486C160.32 80.6867 160.316 80.941 160.316 81.249H159.224ZM159.231 84V82.628H160.316V84H159.231Z" fill="#565973"/>
<path d="M33.6567 125.21C32.6487 125.21 31.7901 124.991 31.0807 124.552C30.3714 124.109 29.8277 123.493 29.4497 122.704C29.0764 121.915 28.8897 121.001 28.8897 119.96C28.8897 118.919 29.0764 118.005 29.4497 117.216C29.8277 116.427 30.3714 115.814 31.0807 115.375C31.7901 114.932 32.6487 114.71 33.6567 114.71C34.8187 114.71 35.7801 115.004 36.5407 115.592C37.3061 116.18 37.8381 116.971 38.1367 117.965L36.6527 118.364C36.4567 117.659 36.1067 117.106 35.6027 116.705C35.1034 116.304 34.4547 116.103 33.6567 116.103C32.9427 116.103 32.3477 116.264 31.8717 116.586C31.3957 116.908 31.0364 117.358 30.7937 117.937C30.5557 118.516 30.4367 119.19 30.4367 119.96C30.4321 120.73 30.5487 121.404 30.7867 121.983C31.0294 122.562 31.3887 123.012 31.8647 123.334C32.3454 123.656 32.9427 123.817 33.6567 123.817C34.4547 123.817 35.1034 123.616 35.6027 123.215C36.1067 122.809 36.4567 122.256 36.6527 121.556L38.1367 121.955C37.8381 122.949 37.3061 123.74 36.5407 124.328C35.7801 124.916 34.8187 125.21 33.6567 125.21ZM42.9593 125.21C42.2033 125.21 41.5476 125.04 40.9923 124.699C40.437 124.358 40.0076 123.889 39.7043 123.292C39.4056 122.69 39.2563 121.997 39.2563 121.213C39.2563 120.424 39.4103 119.731 39.7183 119.134C40.0263 118.532 40.458 118.065 41.0133 117.734C41.5686 117.398 42.2173 117.23 42.9593 117.23C43.7153 117.23 44.371 117.4 44.9263 117.741C45.4816 118.082 45.911 118.551 46.2143 119.148C46.5176 119.745 46.6693 120.434 46.6693 121.213C46.6693 122.002 46.5153 122.697 46.2073 123.299C45.904 123.896 45.4746 124.365 44.9193 124.706C44.364 125.042 43.7106 125.21 42.9593 125.21ZM42.9593 123.831C43.6826 123.831 44.2216 123.588 44.5763 123.103C44.9356 122.613 45.1153 121.983 45.1153 121.213C45.1153 120.424 44.9333 119.794 44.5693 119.323C44.21 118.847 43.6733 118.609 42.9593 118.609C42.4693 118.609 42.0656 118.721 41.7483 118.945C41.431 119.164 41.1953 119.47 41.0413 119.862C40.8873 120.249 40.8103 120.7 40.8103 121.213C40.8103 122.006 40.9923 122.641 41.3563 123.117C41.7203 123.593 42.2546 123.831 42.9593 123.831ZM53.5135 125V121.283C53.5135 120.989 53.4879 120.688 53.4365 120.38C53.3899 120.067 53.2965 119.778 53.1565 119.512C53.0212 119.246 52.8275 119.031 52.5755 118.868C52.3282 118.705 52.0039 118.623 51.6025 118.623C51.3412 118.623 51.0939 118.667 50.8605 118.756C50.6272 118.84 50.4219 118.978 50.2445 119.169C50.0719 119.36 49.9342 119.612 49.8315 119.925C49.7335 120.238 49.6845 120.618 49.6845 121.066L48.7745 120.723C48.7745 120.037 48.9029 119.433 49.1595 118.91C49.4162 118.383 49.7849 117.972 50.2655 117.678C50.7462 117.384 51.3272 117.237 52.0085 117.237C52.5312 117.237 52.9699 117.321 53.3245 117.489C53.6792 117.657 53.9662 117.879 54.1855 118.154C54.4095 118.425 54.5799 118.721 54.6965 119.043C54.8132 119.365 54.8925 119.68 54.9345 119.988C54.9765 120.296 54.9975 120.567 54.9975 120.8V125H53.5135ZM48.2005 125V117.44H49.5095V119.624H49.6845V125H48.2005ZM61.1468 125C60.6708 125.093 60.2042 125.133 59.7468 125.119C59.2895 125.105 58.8812 125.016 58.5218 124.853C58.1625 124.69 57.8918 124.433 57.7098 124.083C57.5465 123.77 57.4578 123.453 57.4438 123.131C57.4345 122.804 57.4298 122.436 57.4298 122.025V115.34H58.8998V121.955C58.8998 122.258 58.9022 122.522 58.9068 122.746C58.9162 122.97 58.9652 123.159 59.0538 123.313C59.2218 123.602 59.4878 123.768 59.8518 123.81C60.2205 123.847 60.6522 123.831 61.1468 123.761V125ZM55.9808 118.616V117.44H61.1468V118.616H55.9808ZM64.8757 125.21C64.3157 125.21 63.8467 125.107 63.4687 124.902C63.0907 124.692 62.8037 124.417 62.6077 124.076C62.4164 123.731 62.3207 123.353 62.3207 122.942C62.3207 122.559 62.3884 122.223 62.5237 121.934C62.6591 121.645 62.8597 121.4 63.1257 121.199C63.3917 120.994 63.7184 120.828 64.1057 120.702C64.4417 120.604 64.8221 120.518 65.2467 120.443C65.6714 120.368 66.1171 120.298 66.5837 120.233C67.0551 120.168 67.5217 120.102 67.9837 120.037L67.4517 120.331C67.4611 119.738 67.3351 119.3 67.0737 119.015C66.8171 118.726 66.3737 118.581 65.7437 118.581C65.3471 118.581 64.9831 118.674 64.6517 118.861C64.3204 119.043 64.0894 119.346 63.9587 119.771L62.5937 119.351C62.7804 118.702 63.1351 118.187 63.6577 117.804C64.1851 117.421 64.8851 117.23 65.7577 117.23C66.4344 117.23 67.0224 117.347 67.5217 117.58C68.0257 117.809 68.3944 118.173 68.6277 118.672C68.7491 118.919 68.8237 119.181 68.8517 119.456C68.8797 119.731 68.8937 120.028 68.8937 120.345V125H67.5987V123.271L67.8507 123.495C67.5381 124.074 67.1391 124.505 66.6537 124.79C66.1731 125.07 65.5804 125.21 64.8757 125.21ZM65.1347 124.013C65.5501 124.013 65.9071 123.941 66.2057 123.796C66.5044 123.647 66.7447 123.458 66.9267 123.229C67.1087 123 67.2277 122.762 67.2837 122.515C67.3631 122.291 67.4074 122.039 67.4167 121.759C67.4307 121.479 67.4377 121.255 67.4377 121.087L67.9137 121.262C67.4517 121.332 67.0317 121.395 66.6537 121.451C66.2757 121.507 65.9327 121.563 65.6247 121.619C65.3214 121.67 65.0507 121.733 64.8127 121.808C64.6121 121.878 64.4324 121.962 64.2737 122.06C64.1197 122.158 63.9961 122.277 63.9027 122.417C63.8141 122.557 63.7697 122.727 63.7697 122.928C63.7697 123.124 63.8187 123.306 63.9167 123.474C64.0147 123.637 64.1641 123.768 64.3647 123.866C64.5654 123.964 64.8221 124.013 65.1347 124.013ZM73.9454 125.21C73.1708 125.21 72.5128 125.037 71.9714 124.692C71.4301 124.347 71.0148 123.873 70.7254 123.271C70.4408 122.669 70.2961 121.985 70.2914 121.22C70.2961 120.441 70.4454 119.752 70.7394 119.155C71.0334 118.553 71.4534 118.082 71.9994 117.741C72.5454 117.4 73.2011 117.23 73.9664 117.23C74.7924 117.23 75.4971 117.435 76.0804 117.846C76.6684 118.257 77.0558 118.819 77.2424 119.533L75.7864 119.953C75.6418 119.528 75.4038 119.199 75.0724 118.966C74.7458 118.728 74.3701 118.609 73.9454 118.609C73.4648 118.609 73.0704 118.723 72.7624 118.952C72.4544 119.176 72.2258 119.484 72.0764 119.876C71.9271 120.268 71.8501 120.716 71.8454 121.22C71.8501 121.999 72.0274 122.629 72.3774 123.11C72.7321 123.591 73.2548 123.831 73.9454 123.831C74.4168 123.831 74.7971 123.724 75.0864 123.509C75.3804 123.29 75.6044 122.977 75.7584 122.571L77.2424 122.921C76.9951 123.658 76.5868 124.225 76.0174 124.622C75.4481 125.014 74.7574 125.21 73.9454 125.21ZM82.9945 125C82.5185 125.093 82.0518 125.133 81.5945 125.119C81.1371 125.105 80.7288 125.016 80.3695 124.853C80.0101 124.69 79.7395 124.433 79.5575 124.083C79.3941 123.77 79.3055 123.453 79.2915 123.131C79.2821 122.804 79.2775 122.436 79.2775 122.025V115.34H80.7475V121.955C80.7475 122.258 80.7498 122.522 80.7545 122.746C80.7638 122.97 80.8128 123.159 80.9015 123.313C81.0695 123.602 81.3355 123.768 81.6995 123.81C82.0681 123.847 82.4998 123.831 82.9945 123.761V125ZM77.8285 118.616V117.44H82.9945V118.616H77.8285ZM90.2401 125.203C89.7175 125.203 89.2788 125.119 88.9241 124.951C88.5695 124.783 88.2801 124.564 88.0561 124.293C87.8368 124.018 87.6688 123.719 87.5521 123.397C87.4355 123.075 87.3561 122.76 87.3141 122.452C87.2721 122.144 87.2511 121.873 87.2511 121.64V117.44H88.7351V121.157C88.7351 121.451 88.7585 121.754 88.8051 122.067C88.8565 122.375 88.9498 122.662 89.0851 122.928C89.2251 123.194 89.4188 123.409 89.6661 123.572C89.9181 123.735 90.2448 123.817 90.6461 123.817C90.9075 123.817 91.1548 123.775 91.3881 123.691C91.6215 123.602 91.8245 123.462 91.9971 123.271C92.1745 123.08 92.3121 122.828 92.4101 122.515C92.5128 122.202 92.5641 121.822 92.5641 121.374L93.4741 121.717C93.4741 122.403 93.3458 123.01 93.0891 123.537C92.8325 124.06 92.4638 124.468 91.9831 124.762C91.5025 125.056 90.9215 125.203 90.2401 125.203ZM92.7391 125V122.816H92.5641V117.44H94.0411V125H92.7391ZM98.8954 125.203C97.9761 125.203 97.2271 125 96.6484 124.594C96.0697 124.188 95.7151 123.616 95.5844 122.879L97.0824 122.648C97.1757 123.04 97.3904 123.35 97.7264 123.579C98.0671 123.803 98.4894 123.915 98.9934 123.915C99.4507 123.915 99.8077 123.822 100.064 123.635C100.326 123.448 100.456 123.192 100.456 122.865C100.456 122.674 100.41 122.52 100.316 122.403C100.228 122.282 100.039 122.167 99.7494 122.06C99.4601 121.953 99.0191 121.82 98.4264 121.661C97.7777 121.493 97.2621 121.313 96.8794 121.122C96.5014 120.926 96.2307 120.7 96.0674 120.443C95.9087 120.182 95.8294 119.867 95.8294 119.498C95.8294 119.041 95.9507 118.642 96.1934 118.301C96.4361 117.96 96.7767 117.697 97.2154 117.51C97.6587 117.323 98.1767 117.23 98.7694 117.23C99.3481 117.23 99.8637 117.321 100.316 117.503C100.769 117.685 101.135 117.944 101.415 118.28C101.695 118.611 101.863 119.001 101.919 119.449L100.421 119.722C100.37 119.358 100.2 119.071 99.9104 118.861C99.6211 118.651 99.2454 118.537 98.7834 118.518C98.3401 118.499 97.9807 118.574 97.7054 118.742C97.4301 118.905 97.2924 119.132 97.2924 119.421C97.2924 119.589 97.3437 119.731 97.4464 119.848C97.5537 119.965 97.7591 120.077 98.0624 120.184C98.3657 120.291 98.8137 120.42 99.4064 120.569C100.041 120.732 100.545 120.914 100.918 121.115C101.292 121.311 101.558 121.547 101.716 121.822C101.88 122.093 101.961 122.422 101.961 122.809C101.961 123.556 101.688 124.141 101.142 124.566C100.601 124.991 99.8521 125.203 98.8954 125.203Z" fill="#6366F1"/>
<path d="M120.411 124.411L121.589 125.589L127.178 120L121.589 114.411L120.411 115.589L123.988 119.167H116V120.833H123.988L120.411 124.411Z" fill="#6366F1"/>
</g>
<defs>
<filter id="filter0_d_4633_10428" x="0" y="0" width="204" height="174" filterUnits="userSpaceOnUse" color-interpolation-filters="sRGB">
<feFlood flood-opacity="0" result="BackgroundImageFix"/>
<feColorMatrix in="SourceAlpha" type="matrix" values="0 0 0 0 0 0 0 0 0 0 0 0 0 0 0 0 0 0 127 0" result="hardAlpha"/>
<feOffset dy="4"/>
<feGaussianBlur stdDeviation="2"/>
<feComposite in2="hardAlpha" operator="out"/>
<feColorMatrix type="matrix" values="0 0 0 0 0 0 0 0 0 0 0 0 0 0 0 0 0 0 0.25 0"/>
<feBlend mode="normal" in2="BackgroundImageFix" result="effect1_dropShadow_4633_10428"/>
<feBlend mode="normal" in="SourceGraphic" in2="effect1_dropShadow_4633_10428" result="shape"/>
</filter>
<clipPath id="clip0_4633_10428">
<rect width="28" height="28" fill="white" transform="translate(28 24)"/>
</clipPath>
</defs>
</svg>
